solid OpenSCAD_Model
  facet normal 0.965926 0.258817 -1.6923e-06
    outer loop
      vertex -2 18.27 16.5176
      vertex -2.40192 19.77 14.5362
      vertex -2.04678 18.4446 16.3604
    endloop
  endfacet
  facet normal 0.965926 0.25882 0
    outer loop
      vertex -2.40192 19.77 14.5362
      vertex -2 18.27 16.5176
      vertex -2 18.27 0
    endloop
  endfacet
  facet normal 0.965926 0.25882 0
    outer loop
      vertex -2.40192 19.77 14.5362
      vertex -2 18.27 0
      vertex -2.40192 19.77 0
    endloop
  endfacet
  facet normal 0.258819 0.965926 0
    outer loop
      vertex -3.5 20.8681 11.7572
      vertex -4.77511 21.2097 9
      vertex -4.77511 21.2097 10.1498
    endloop
  endfacet
  facet normal 0.258819 0.965926 -0
    outer loop
      vertex -3.5 20.8681 0
      vertex -4.77511 21.2097 9
      vertex -3.5 20.8681 11.7572
    endloop
  endfacet
  facet normal 0.25882 0.965926 1.46023e-07
    outer loop
      vertex -5 21.27 0
      vertex -4.77511 21.2097 9
      vertex -3.5 20.8681 0
    endloop
  endfacet
  facet normal 0.258825 0.965924 0
    outer loop
      vertex -4.77511 21.2097 9
      vertex -5 21.27 0
      vertex -5 21.27 9
    endloop
  endfacet
  facet normal 0.707105 0.707108 1.70833e-06
    outer loop
      vertex -2.40192 19.77 14.5362
      vertex -3.5 20.8681 11.7572
      vertex -3.36355 20.7316 12.3992
    endloop
  endfacet
  facet normal 0.707106 0.707107 8.29039e-07
    outer loop
      vertex -2.40192 19.77 14.5362
      vertex -3.36355 20.7316 12.3992
      vertex -2.4282 19.7963 14.5
    endloop
  endfacet
  facet normal 0.707107 0.707106 0
    outer loop
      vertex -3.5 20.8681 11.7572
      vertex -2.40192 19.77 14.5362
      vertex -2.40192 19.77 0
    endloop
  endfacet
  facet normal 0.707107 0.707106 0
    outer loop
      vertex -3.5 20.8681 11.7572
      vertex -2.40192 19.77 0
      vertex -3.5 20.8681 0
    endloop
  endfacet
  facet normal -0 0 1
    outer loop
      vertex -7.5 21.27 9
      vertex -4.77511 21.2097 9
      vertex -5 21.27 9
    endloop
  endfacet
  facet normal 0 0 1
    outer loop
      vertex -4.77511 21.2097 9
      vertex -7.5 21.27 9
      vertex -7.72489 21.2097 9
    endloop
  endfacet
  facet normal 0 0.104529 0.994522
    outer loop
      vertex -2 12.557 19.7596
      vertex -6.25 10.27 20
      vertex -2 10.27 20
    endloop
  endfacet
  facet normal 2.23165e-07 0.104529 0.994522
    outer loop
      vertex -10.5 12.557 19.7596
      vertex -6.25 10.27 20
      vertex -2 12.557 19.7596
    endloop
  endfacet
  facet normal 0 0.104528 0.994522
    outer loop
      vertex -6.25 10.27 20
      vertex -10.5 12.557 19.7596
      vertex -10.5 10.27 20
    endloop
  endfacet
  facet normal 0 1 -0
    outer loop
      vertex -4.77511 21.2097 9
      vertex -7.72489 21.2097 10.1498
      vertex -4.77511 21.2097 10.1498
    endloop
  endfacet
  facet normal 0 1 0
    outer loop
      vertex -7.72489 21.2097 10.1498
      vertex -4.77511 21.2097 9
      vertex -7.72489 21.2097 9
    endloop
  endfacet
  facet normal -2.59132e-05 0.66913 0.743145
    outer loop
      vertex -2.04678 18.4446 16.3604
      vertex -2 16.7356 17.8992
      vertex -2 18.27 16.5176
    endloop
  endfacet
  facet normal -0 0.66913 0.743145
    outer loop
      vertex -10.4532 18.4446 16.3604
      vertex -2 16.7356 17.8992
      vertex -2.04678 18.4446 16.3604
    endloop
  endfacet
  facet normal 2.59129e-05 0.66913 0.743145
    outer loop
      vertex -10.5 16.7356 17.8992
      vertex -10.4532 18.4446 16.3604
      vertex -10.5 18.27 16.5176
    endloop
  endfacet
  facet normal 0 0.66913 0.743145
    outer loop
      vertex -10.4532 18.4446 16.3604
      vertex -10.5 16.7356 17.8992
      vertex -2 16.7356 17.8992
    endloop
  endfacet
  facet normal -0 0.309017 0.951057
    outer loop
      vertex -10.5 14.7441 19.049
      vertex -2 12.557 19.7596
      vertex -2 14.7441 19.049
    endloop
  endfacet
  facet normal 2.13411e-07 0.309017 0.951056
    outer loop
      vertex -2 12.557 19.7596
      vertex -10.5 14.7441 19.049
      vertex -10.5 12.557 19.7596
    endloop
  endfacet
  facet normal -0 0.500001 0.866025
    outer loop
      vertex -10.5 16.7356 17.8992
      vertex -2 14.7441 19.049
      vertex -2 16.7356 17.8992
    endloop
  endfacet
  facet normal 0 0.500001 0.866025
    outer loop
      vertex -2 14.7441 19.049
      vertex -10.5 16.7356 17.8992
      vertex -10.5 14.7441 19.049
    endloop
  endfacet
  facet normal 0 0.913545 0.406737
    outer loop
      vertex -3.36355 20.7316 12.3992
      vertex -10.0718 19.7963 14.5
      vertex -2.4282 19.7963 14.5
    endloop
  endfacet
  facet normal 0 0.913545 0.406737
    outer loop
      vertex -10.0718 19.7963 14.5
      vertex -3.36355 20.7316 12.3992
      vertex -9.13645 20.7316 12.3992
    endloop
  endfacet
  facet normal 0 0.978147 0.207913
    outer loop
      vertex -3.5 20.8681 11.7572
      vertex -9.13645 20.7316 12.3992
      vertex -3.36355 20.7316 12.3992
    endloop
  endfacet
  facet normal 0 0.978147 0.207913
    outer loop
      vertex -3.5 20.8681 11.7572
      vertex -9 20.8681 11.7572
      vertex -9.13645 20.7316 12.3992
    endloop
  endfacet
  facet normal 0 0.978148 0.207911
    outer loop
      vertex -4.77511 21.2097 10.1498
      vertex -9 20.8681 11.7572
      vertex -3.5 20.8681 11.7572
    endloop
  endfacet
  facet normal 0 0.978148 0.207911
    outer loop
      vertex -9 20.8681 11.7572
      vertex -4.77511 21.2097 10.1498
      vertex -7.72489 21.2097 10.1498
    endloop
  endfacet
  facet normal -1.16987e-05 0.809016 0.587787
    outer loop
      vertex -2.4282 19.7963 14.5
      vertex -2.04678 18.4446 16.3604
      vertex -2.40192 19.77 14.5362
    endloop
  endfacet
  facet normal 0 0.809017 0.587785
    outer loop
      vertex -2.04678 18.4446 16.3604
      vertex -2.4282 19.7963 14.5
      vertex -10.4532 18.4446 16.3604
    endloop
  endfacet
  facet normal -0 0.809017 0.587785
    outer loop
      vertex -10.0718 19.7963 14.5
      vertex -10.4532 18.4446 16.3604
      vertex -2.4282 19.7963 14.5
    endloop
  endfacet
  facet normal 3.40687e-05 0.809014 0.58779
    outer loop
      vertex -10.4532 18.4446 16.3604
      vertex -10.0718 19.7963 14.5
      vertex -10.0981 19.77 14.5362
    endloop
  endfacet
  facet normal -0.258826 0.965924 0
    outer loop
      vertex -7.5 21.27 9
      vertex -7.5 21.27 0
      vertex -7.72489 21.2097 9
    endloop
  endfacet
  facet normal -0.258819 0.965926 0
    outer loop
      vertex -7.72489 21.2097 9
      vertex -9 20.8681 11.7572
      vertex -7.72489 21.2097 10.1498
    endloop
  endfacet
  facet normal -0.25882 0.965926 1.55624e-07
    outer loop
      vertex -9 20.8681 0
      vertex -7.72489 21.2097 9
      vertex -7.5 21.27 0
    endloop
  endfacet
  facet normal -0.258819 0.965926 0
    outer loop
      vertex -7.72489 21.2097 9
      vertex -9 20.8681 0
      vertex -9 20.8681 11.7572
    endloop
  endfacet
  facet normal -0.965926 0.258819 0
    outer loop
      vertex -10.5 18.27 0
      vertex -10.0981 19.77 14.5362
      vertex -10.0981 19.77 0
    endloop
  endfacet
  facet normal -0.965926 0.258819 0
    outer loop
      vertex -10.5 18.27 16.5176
      vertex -10.0981 19.77 14.5362
      vertex -10.5 18.27 0
    endloop
  endfacet
  facet normal -0.965924 0.258826 5.36283e-06
    outer loop
      vertex -10.0981 19.77 14.5362
      vertex -10.5 18.27 16.5176
      vertex -10.4532 18.4446 16.3604
    endloop
  endfacet
  facet normal -0.707074 0.707139 2.868e-05
    outer loop
      vertex -9.13645 20.7316 12.3992
      vertex -10.0981 19.77 14.5362
      vertex -10.0718 19.7963 14.5
    endloop
  endfacet
  facet normal -0.707103 0.70711 2.55583e-06
    outer loop
      vertex -9 20.8681 11.7572
      vertex -10.0981 19.77 14.5362
      vertex -9.13645 20.7316 12.3992
    endloop
  endfacet
  facet normal -0.707106 0.707107 0
    outer loop
      vertex -10.0981 19.77 0
      vertex -9 20.8681 11.7572
      vertex -9 20.8681 0
    endloop
  endfacet
  facet normal -0.707106 0.707107 0
    outer loop
      vertex -9 20.8681 11.7572
      vertex -10.0981 19.77 0
      vertex -10.0981 19.77 14.5362
    endloop
  endfacet
  facet normal -0.965926 -0.25882 0
    outer loop
      vertex -10.0981 -19.77 14.5362
      vertex -10.5 -18.27 16.5176
      vertex -10.5 -18.27 0
    endloop
  endfacet
  facet normal -0.965926 -0.25882 -0
    outer loop
      vertex -10.0981 -19.77 14.5362
      vertex -10.5 -18.27 0
      vertex -10.0981 -19.77 0
    endloop
  endfacet
  facet normal -0.965924 -0.258825 4.58031e-06
    outer loop
      vertex -10.5 -18.27 16.5176
      vertex -10.0981 -19.77 14.5362
      vertex -10.4532 -18.4446 16.3604
    endloop
  endfacet
  facet normal -0.258819 -0.965926 0
    outer loop
      vertex -9 -20.8681 11.7572
      vertex -7.72489 -21.2097 9
      vertex -7.72489 -21.2097 10.1498
    endloop
  endfacet
  facet normal -0.258819 -0.965926 0
    outer loop
      vertex -9 -20.8681 0
      vertex -7.72489 -21.2097 9
      vertex -9 -20.8681 11.7572
    endloop
  endfacet
  facet normal -0.25882 -0.965926 1.46023e-07
    outer loop
      vertex -7.5 -21.27 0
      vertex -7.72489 -21.2097 9
      vertex -9 -20.8681 0
    endloop
  endfacet
  facet normal -0.258825 -0.965924 0
    outer loop
      vertex -7.72489 -21.2097 9
      vertex -7.5 -21.27 0
      vertex -7.5 -21.27 9
    endloop
  endfacet
  facet normal -0.707107 -0.707106 0
    outer loop
      vertex -9 -20.8681 11.7572
      vertex -10.0981 -19.77 14.5362
      vertex -10.0981 -19.77 0
    endloop
  endfacet
  facet normal -0.707105 -0.707108 1.70833e-06
    outer loop
      vertex -9.13645 -20.7316 12.3992
      vertex -10.0981 -19.77 14.5362
      vertex -9 -20.8681 11.7572
    endloop
  endfacet
  facet normal -0.707107 -0.707106 -0
    outer loop
      vertex -9 -20.8681 11.7572
      vertex -10.0981 -19.77 0
      vertex -9 -20.8681 0
    endloop
  endfacet
  facet normal -0.707106 -0.707107 8.29039e-07
    outer loop
      vertex -10.0981 -19.77 14.5362
      vertex -9.13645 -20.7316 12.3992
      vertex -10.0718 -19.7963 14.5
    endloop
  endfacet
  facet normal 0 0 1
    outer loop
      vertex -4.77511 -21.2097 9
      vertex -7.5 -21.27 9
      vertex -5 -21.27 9
    endloop
  endfacet
  facet normal 0 -0 1
    outer loop
      vertex -7.5 -21.27 9
      vertex -4.77511 -21.2097 9
      vertex -7.72489 -21.2097 9
    endloop
  endfacet
  facet normal 0 -0.104529 0.994522
    outer loop
      vertex -6.25 -10.27 20
      vertex -2 -12.557 19.7596
      vertex -2 -10.27 20
    endloop
  endfacet
  facet normal 0 -0.104528 0.994522
    outer loop
      vertex -10.5 -12.557 19.7596
      vertex -6.25 -10.27 20
      vertex -10.5 -10.27 20
    endloop
  endfacet
  facet normal 2.23165e-07 -0.104529 0.994522
    outer loop
      vertex -6.25 -10.27 20
      vertex -10.5 -12.557 19.7596
      vertex -2 -12.557 19.7596
    endloop
  endfacet
  facet normal 0 -1 0
    outer loop
      vertex -7.72489 -21.2097 9
      vertex -4.77511 -21.2097 10.1498
      vertex -7.72489 -21.2097 10.1498
    endloop
  endfacet
  facet normal 0 -1 -0
    outer loop
      vertex -4.77511 -21.2097 10.1498
      vertex -7.72489 -21.2097 9
      vertex -4.77511 -21.2097 9
    endloop
  endfacet
  facet normal -2.59132e-05 -0.66913 0.743145
    outer loop
      vertex -2 -16.7356 17.8992
      vertex -2.04678 -18.4446 16.3604
      vertex -2 -18.27 16.5176
    endloop
  endfacet
  facet normal 0 -0.66913 0.743145
    outer loop
      vertex -2 -16.7356 17.8992
      vertex -10.4532 -18.4446 16.3604
      vertex -2.04678 -18.4446 16.3604
    endloop
  endfacet
  facet normal 0 -0.66913 0.743145
    outer loop
      vertex -10.5 -16.7356 17.8992
      vertex -10.4532 -18.4446 16.3604
      vertex -2 -16.7356 17.8992
    endloop
  endfacet
  facet normal 2.59129e-05 -0.66913 0.743145
    outer loop
      vertex -10.4532 -18.4446 16.3604
      vertex -10.5 -16.7356 17.8992
      vertex -10.5 -18.27 16.5176
    endloop
  endfacet
  facet normal 2.13411e-07 -0.309017 0.951057
    outer loop
      vertex -10.5 -12.557 19.7596
      vertex -2 -14.7441 19.049
      vertex -2 -12.557 19.7596
    endloop
  endfacet
  facet normal 0 -0.309017 0.951056
    outer loop
      vertex -2 -14.7441 19.049
      vertex -10.5 -12.557 19.7596
      vertex -10.5 -14.7441 19.049
    endloop
  endfacet
  facet normal 0 -0.500001 0.866025
    outer loop
      vertex -10.5 -14.7441 19.049
      vertex -2 -16.7356 17.8992
      vertex -2 -14.7441 19.049
    endloop
  endfacet
  facet normal 0 -0.500001 0.866025
    outer loop
      vertex -2 -16.7356 17.8992
      vertex -10.5 -14.7441 19.049
      vertex -10.5 -16.7356 17.8992
    endloop
  endfacet
  facet normal 0 -0.913545 0.406737
    outer loop
      vertex -9.13645 -20.7316 12.3992
      vertex -2.4282 -19.7963 14.5
      vertex -10.0718 -19.7963 14.5
    endloop
  endfacet
  facet normal 0 -0.913545 0.406737
    outer loop
      vertex -2.4282 -19.7963 14.5
      vertex -9.13645 -20.7316 12.3992
      vertex -3.36355 -20.7316 12.3992
    endloop
  endfacet
  facet normal 0 -0.978147 0.207913
    outer loop
      vertex -9 -20.8681 11.7572
      vertex -3.36355 -20.7316 12.3992
      vertex -9.13645 -20.7316 12.3992
    endloop
  endfacet
  facet normal 0 -0.978147 0.207913
    outer loop
      vertex -9 -20.8681 11.7572
      vertex -3.5 -20.8681 11.7572
      vertex -3.36355 -20.7316 12.3992
    endloop
  endfacet
  facet normal 0 -0.978148 0.207911
    outer loop
      vertex -7.72489 -21.2097 10.1498
      vertex -3.5 -20.8681 11.7572
      vertex -9 -20.8681 11.7572
    endloop
  endfacet
  facet normal 0 -0.978148 0.207911
    outer loop
      vertex -3.5 -20.8681 11.7572
      vertex -7.72489 -21.2097 10.1498
      vertex -4.77511 -21.2097 10.1498
    endloop
  endfacet
  facet normal 1.16986e-05 -0.809016 0.587787
    outer loop
      vertex -10.0718 -19.7963 14.5
      vertex -10.4532 -18.4446 16.3604
      vertex -10.0981 -19.77 14.5362
    endloop
  endfacet
  facet normal 0 -0.809017 0.587785
    outer loop
      vertex -10.4532 -18.4446 16.3604
      vertex -10.0718 -19.7963 14.5
      vertex -2.04678 -18.4446 16.3604
    endloop
  endfacet
  facet normal 0 -0.809017 0.587785
    outer loop
      vertex -2.4282 -19.7963 14.5
      vertex -2.04678 -18.4446 16.3604
      vertex -10.0718 -19.7963 14.5
    endloop
  endfacet
  facet normal -3.40687e-05 -0.809014 0.58779
    outer loop
      vertex -2.04678 -18.4446 16.3604
      vertex -2.4282 -19.7963 14.5
      vertex -2.40192 -19.77 14.5362
    endloop
  endfacet
  facet normal 0.258826 -0.965924 0
    outer loop
      vertex -5 -21.27 9
      vertex -5 -21.27 0
      vertex -4.77511 -21.2097 9
    endloop
  endfacet
  facet normal 0.258819 -0.965926 0
    outer loop
      vertex -4.77511 -21.2097 9
      vertex -3.5 -20.8681 11.7572
      vertex -4.77511 -21.2097 10.1498
    endloop
  endfacet
  facet normal 0.25882 -0.965926 1.55624e-07
    outer loop
      vertex -3.5 -20.8681 0
      vertex -4.77511 -21.2097 9
      vertex -5 -21.27 0
    endloop
  endfacet
  facet normal 0.258819 -0.965926 0
    outer loop
      vertex -4.77511 -21.2097 9
      vertex -3.5 -20.8681 0
      vertex -3.5 -20.8681 11.7572
    endloop
  endfacet
  facet normal 0.965926 -0.258818 -9.09781e-07
    outer loop
      vertex -2.40192 -19.77 14.5362
      vertex -2 -18.27 16.5176
      vertex -2.04678 -18.4446 16.3604
    endloop
  endfacet
  facet normal 0.965926 -0.258819 0
    outer loop
      vertex -2 -18.27 16.5176
      vertex -2.40192 -19.77 14.5362
      vertex -2 -18.27 0
    endloop
  endfacet
  facet normal 0.965926 -0.258819 0
    outer loop
      vertex -2 -18.27 0
      vertex -2.40192 -19.77 14.5362
      vertex -2.40192 -19.77 0
    endloop
  endfacet
  facet normal 0.707074 -0.707139 2.868e-05
    outer loop
      vertex -3.36355 -20.7316 12.3992
      vertex -2.40192 -19.77 14.5362
      vertex -2.4282 -19.7963 14.5
    endloop
  endfacet
  facet normal 0.707103 -0.70711 2.55583e-06
    outer loop
      vertex -3.5 -20.8681 11.7572
      vertex -2.40192 -19.77 14.5362
      vertex -3.36355 -20.7316 12.3992
    endloop
  endfacet
  facet normal 0.707106 -0.707107 0
    outer loop
      vertex -2.40192 -19.77 0
      vertex -3.5 -20.8681 11.7572
      vertex -3.5 -20.8681 0
    endloop
  endfacet
  facet normal 0.707106 -0.707107 0
    outer loop
      vertex -3.5 -20.8681 11.7572
      vertex -2.40192 -19.77 0
      vertex -2.40192 -19.77 14.5362
    endloop
  endfacet
  facet normal -1 0 0
    outer loop
      vertex -10.5 16.7199 9.55496
      vertex -10.5 18.27 16.5176
      vertex -10.5 18.27 0
    endloop
  endfacet
  facet normal -1 0 0
    outer loop
      vertex -10.5 16.3337 11.247
      vertex -10.5 18.27 16.5176
      vertex -10.5 16.7199 9.55496
    endloop
  endfacet
  facet normal -1 0 0
    outer loop
      vertex -10.5 18.27 0
      vertex -10.5 15.6378 8.19806
      vertex -10.5 16.7199 9.55496
    endloop
  endfacet
  facet normal -1 0 0
    outer loop
      vertex -10.5 18.27 0
      vertex -10.5 13.9022 8.19806
      vertex -10.5 15.6378 8.19806
    endloop
  endfacet
  facet normal -1 0 0
    outer loop
      vertex -10.5 -13.9022 8.19806
      vertex -10.5 13.9022 8.19806
      vertex -10.5 18.27 0
    endloop
  endfacet
  facet normal -1 0 0
    outer loop
      vertex -10.5 13.2063 11.247
      vertex -10.5 10.27 20
      vertex -10.5 12.557 19.7596
    endloop
  endfacet
  facet normal -1 0 0
    outer loop
      vertex -10.5 12.8201 9.55496
      vertex -10.5 -10.27 20
      vertex -10.5 10.27 20
    endloop
  endfacet
  facet normal -1 0 0
    outer loop
      vertex -10.5 13.9022 8.19806
      vertex -10.5 -13.9022 8.19806
      vertex -10.5 12.8201 9.55496
    endloop
  endfacet
  facet normal -1 0 0
    outer loop
      vertex -10.5 12.8201 9.55496
      vertex -10.5 -12.8201 9.55496
      vertex -10.5 -10.27 20
    endloop
  endfacet
  facet normal -1 0 0
    outer loop
      vertex -10.5 -13.2063 11.247
      vertex -10.5 -10.27 20
      vertex -10.5 -12.8201 9.55496
    endloop
  endfacet
  facet normal -1 -0 0
    outer loop
      vertex -10.5 12.8201 9.55496
      vertex -10.5 -13.9022 8.19806
      vertex -10.5 -12.8201 9.55496
    endloop
  endfacet
  facet normal -1 0 0
    outer loop
      vertex -10.5 -18.27 0
      vertex -10.5 -13.9022 8.19806
      vertex -10.5 18.27 0
    endloop
  endfacet
  facet normal -1 -0 0
    outer loop
      vertex -10.5 -13.9022 8.19806
      vertex -10.5 -18.27 0
      vertex -10.5 -15.6378 8.19806
    endloop
  endfacet
  facet normal -1 0 0
    outer loop
      vertex -10.5 -18.27 0
      vertex -10.5 -16.7199 9.55496
      vertex -10.5 -15.6378 8.19806
    endloop
  endfacet
  facet normal -1 0 0
    outer loop
      vertex -10.5 -18.27 16.5176
      vertex -10.5 -16.7199 9.55496
      vertex -10.5 -18.27 0
    endloop
  endfacet
  facet normal -1 0 0
    outer loop
      vertex -10.5 -16.7199 9.55496
      vertex -10.5 -18.27 16.5176
      vertex -10.5 -16.7356 17.8992
    endloop
  endfacet
  facet normal -1 0 0
    outer loop
      vertex -10.5 14.77 12
      vertex -10.5 18.27 16.5176
      vertex -10.5 16.3337 11.247
    endloop
  endfacet
  facet normal -1 -0 0
    outer loop
      vertex -10.5 18.27 16.5176
      vertex -10.5 14.77 12
      vertex -10.5 16.7356 17.8992
    endloop
  endfacet
  facet normal -1 0 0
    outer loop
      vertex -10.5 14.77 12
      vertex -10.5 14.7441 19.049
      vertex -10.5 16.7356 17.8992
    endloop
  endfacet
  facet normal -1 0 0
    outer loop
      vertex -10.5 12.557 19.7596
      vertex -10.5 14.77 12
      vertex -10.5 13.2063 11.247
    endloop
  endfacet
  facet normal -1 0 0
    outer loop
      vertex -10.5 10.27 20
      vertex -10.5 13.2063 11.247
      vertex -10.5 12.8201 9.55496
    endloop
  endfacet
  facet normal -1 0 0
    outer loop
      vertex -10.5 14.77 12
      vertex -10.5 12.557 19.7596
      vertex -10.5 14.7441 19.049
    endloop
  endfacet
  facet normal -1 0 0
    outer loop
      vertex -10.5 -10.27 20
      vertex -10.5 -13.2063 11.247
      vertex -10.5 -12.557 19.7596
    endloop
  endfacet
  facet normal -1 0 0
    outer loop
      vertex -10.5 -14.77 12
      vertex -10.5 -12.557 19.7596
      vertex -10.5 -13.2063 11.247
    endloop
  endfacet
  facet normal -1 0 0
    outer loop
      vertex -10.5 -12.557 19.7596
      vertex -10.5 -14.77 12
      vertex -10.5 -14.7441 19.049
    endloop
  endfacet
  facet normal -1 0 0
    outer loop
      vertex -10.5 -16.7356 17.8992
      vertex -10.5 -14.77 12
      vertex -10.5 -16.3337 11.247
    endloop
  endfacet
  facet normal -1 0 0
    outer loop
      vertex -10.5 -16.7356 17.8992
      vertex -10.5 -16.3337 11.247
      vertex -10.5 -16.7199 9.55496
    endloop
  endfacet
  facet normal -1 0 0
    outer loop
      vertex -10.5 -14.77 12
      vertex -10.5 -16.7356 17.8992
      vertex -10.5 -14.7441 19.049
    endloop
  endfacet
  facet normal 0 0 1
    outer loop
      vertex -2 10.27 20
      vertex -2.42062 8.08543 20
      vertex -2 8.1596 20
    endloop
  endfacet
  facet normal 0 0 1
    outer loop
      vertex -2 10.27 20
      vertex -4.22 7.30925 20
      vertex -2.42062 8.08543 20
    endloop
  endfacet
  facet normal -0 0 1
    outer loop
      vertex -6.25 10.27 20
      vertex -4.22 7.30925 20
      vertex -2 10.27 20
    endloop
  endfacet
  facet normal 0 0 1
    outer loop
      vertex -4.22 7.30925 20
      vertex -6.25 10.27 20
      vertex -5.79188 6.13903 20
    endloop
  endfacet
  facet normal -0 0 1
    outer loop
      vertex -10.5 10.27 20
      vertex -5.79188 6.13903 20
      vertex -6.25 10.27 20
    endloop
  endfacet
  facet normal 0 0 1
    outer loop
      vertex -5.79188 6.13903 20
      vertex -10.5 10.27 20
      vertex -7.05152 4.63786 20
    endloop
  endfacet
  facet normal 0 0 1
    outer loop
      vertex -7.05152 4.63786 20
      vertex -10.5 10.27 20
      vertex -7.93101 2.88665 20
    endloop
  endfacet
  facet normal 0 0 1
    outer loop
      vertex -8.38293 0.979824 20
      vertex -10.5 10.27 20
      vertex -8.38293 -0.979824 20
    endloop
  endfacet
  facet normal 0 0 1
    outer loop
      vertex -7.93101 2.88665 20
      vertex -10.5 10.27 20
      vertex -8.38293 0.979824 20
    endloop
  endfacet
  facet normal 0 0 1
    outer loop
      vertex -2.42062 -8.08543 20
      vertex -2 -10.27 20
      vertex -2 -8.1596 20
    endloop
  endfacet
  facet normal 0 0 1
    outer loop
      vertex -4.22 -7.30925 20
      vertex -2 -10.27 20
      vertex -2.42062 -8.08543 20
    endloop
  endfacet
  facet normal 0 0 1
    outer loop
      vertex -6.25 -10.27 20
      vertex -4.22 -7.30925 20
      vertex -5.79188 -6.13903 20
    endloop
  endfacet
  facet normal 0 0 1
    outer loop
      vertex -4.22 -7.30925 20
      vertex -6.25 -10.27 20
      vertex -2 -10.27 20
    endloop
  endfacet
  facet normal 0 0 1
    outer loop
      vertex -10.5 -10.27 20
      vertex -5.79188 -6.13903 20
      vertex -7.05152 -4.63786 20
    endloop
  endfacet
  facet normal 0 0 1
    outer loop
      vertex -10.5 -10.27 20
      vertex -7.05152 -4.63786 20
      vertex -7.93101 -2.88665 20
    endloop
  endfacet
  facet normal 0 0 1
    outer loop
      vertex -10.5 -10.27 20
      vertex -7.93101 -2.88665 20
      vertex -8.38293 -0.979824 20
    endloop
  endfacet
  facet normal 0 0 1
    outer loop
      vertex -5.79188 -6.13903 20
      vertex -10.5 -10.27 20
      vertex -6.25 -10.27 20
    endloop
  endfacet
  facet normal 0 0 1
    outer loop
      vertex -10.5 -10.27 20
      vertex -8.38293 -0.979824 20
      vertex -10.5 10.27 20
    endloop
  endfacet
  facet normal 1 -0 0
    outer loop
      vertex -2 8.1596 20
      vertex -2 9.49827 11.4
      vertex -2 10.27 20
    endloop
  endfacet
  facet normal 1 0 0
    outer loop
      vertex -2 9.49827 11.4
      vertex -2 8.1596 20
      vertex -2 8.1596 11.4
    endloop
  endfacet
  facet normal 1 0 0
    outer loop
      vertex -2 18.27 16.5176
      vertex -2 18.1822 9.22118
      vertex -2 18.27 0
    endloop
  endfacet
  facet normal 1 0 0
    outer loop
      vertex -2 18.27 16.5176
      vertex -2 17.5064 12.1822
      vertex -2 18.1822 9.22118
    endloop
  endfacet
  facet normal 1 0 0
    outer loop
      vertex -2 14.77 13.5
      vertex -2 18.27 16.5176
      vertex -2 16.7356 17.8992
    endloop
  endfacet
  facet normal 1 0 0
    outer loop
      vertex -2 18.27 16.5176
      vertex -2 14.77 13.5
      vertex -2 17.5064 12.1822
    endloop
  endfacet
  facet normal 1 0 0
    outer loop
      vertex -2 14.7441 19.049
      vertex -2 14.77 13.5
      vertex -2 16.7356 17.8992
    endloop
  endfacet
  facet normal 1 0 0
    outer loop
      vertex -2 12.557 19.7596
      vertex -2 14.77 13.5
      vertex -2 14.7441 19.049
    endloop
  endfacet
  facet normal 1 0 0
    outer loop
      vertex -2 12.557 19.7596
      vertex -2 12.0336 12.1822
      vertex -2 14.77 13.5
    endloop
  endfacet
  facet normal 1 0 0
    outer loop
      vertex -2 10.27 20
      vertex -2 12.0336 12.1822
      vertex -2 12.557 19.7596
    endloop
  endfacet
  facet normal 1 0 0
    outer loop
      vertex -2 12.0336 12.1822
      vertex -2 10.27 20
      vertex -2 9.49827 11.4
    endloop
  endfacet
  facet normal 1 -0 0
    outer loop
      vertex -2 16.2886 6.84661
      vertex -2 18.27 0
      vertex -2 18.1822 9.22118
    endloop
  endfacet
  facet normal 1 -0 0
    outer loop
      vertex -2 13.2514 6.84661
      vertex -2 18.27 0
      vertex -2 16.2886 6.84661
    endloop
  endfacet
  facet normal 1 0 0
    outer loop
      vertex -2 9.49827 0
      vertex -2 13.2514 6.84661
      vertex -2 11.3578 9.22118
    endloop
  endfacet
  facet normal 1 0 0
    outer loop
      vertex -2 12.0336 12.1822
      vertex -2 9.49827 11.4
      vertex -2 11.3578 9.22118
    endloop
  endfacet
  facet normal 1 0 0
    outer loop
      vertex -2 9.49827 0
      vertex -2 11.3578 9.22118
      vertex -2 9.49827 11.4
    endloop
  endfacet
  facet normal 1 0 0
    outer loop
      vertex -2 13.2514 6.84661
      vertex -2 9.49827 0
      vertex -2 18.27 0
    endloop
  endfacet
  facet normal 1 0 0
    outer loop
      vertex -2 -9.49827 11.4
      vertex -2 -12.0336 12.1822
      vertex -2 -11.3578 9.22118
    endloop
  endfacet
  facet normal 1 -0 0
    outer loop
      vertex -2 -12.557 19.7596
      vertex -2 -12.0336 12.1822
      vertex -2 -10.27 20
    endloop
  endfacet
  facet normal 1 0 0
    outer loop
      vertex -2 -14.77 13.5
      vertex -2 -12.557 19.7596
      vertex -2 -14.7441 19.049
    endloop
  endfacet
  facet normal 1 0 0
    outer loop
      vertex -2 -12.557 19.7596
      vertex -2 -14.77 13.5
      vertex -2 -12.0336 12.1822
    endloop
  endfacet
  facet normal 1 -0 0
    outer loop
      vertex -2 -16.7356 17.8992
      vertex -2 -14.77 13.5
      vertex -2 -14.7441 19.049
    endloop
  endfacet
  facet normal 1 -0 0
    outer loop
      vertex -2 -18.27 16.5176
      vertex -2 -14.77 13.5
      vertex -2 -16.7356 17.8992
    endloop
  endfacet
  facet normal 1 0 0
    outer loop
      vertex -2 -14.77 13.5
      vertex -2 -18.27 16.5176
      vertex -2 -17.5064 12.1822
    endloop
  endfacet
  facet normal 1 0 0
    outer loop
      vertex -2 -17.5064 12.1822
      vertex -2 -18.27 16.5176
      vertex -2 -18.1822 9.22118
    endloop
  endfacet
  facet normal 1 0 0
    outer loop
      vertex -2 -8.1596 20
      vertex -2 -9.49827 11.4
      vertex -2 -8.1596 11.4
    endloop
  endfacet
  facet normal 1 -0 0
    outer loop
      vertex -2 -10.27 20
      vertex -2 -9.49827 11.4
      vertex -2 -8.1596 20
    endloop
  endfacet
  facet normal 1 -0 0
    outer loop
      vertex -2 -12.0336 12.1822
      vertex -2 -9.49827 11.4
      vertex -2 -10.27 20
    endloop
  endfacet
  facet normal 1 0 0
    outer loop
      vertex -2 -9.49827 11.4
      vertex -2 -11.3578 9.22118
      vertex -2 -9.49827 0
    endloop
  endfacet
  facet normal 1 -0 0
    outer loop
      vertex -2 -13.2514 6.84661
      vertex -2 -9.49827 0
      vertex -2 -11.3578 9.22118
    endloop
  endfacet
  facet normal 1 0 0
    outer loop
      vertex -2 -18.27 0
      vertex -2 -13.2514 6.84661
      vertex -2 -16.2886 6.84661
    endloop
  endfacet
  facet normal 1 0 0
    outer loop
      vertex -2 -13.2514 6.84661
      vertex -2 -18.27 0
      vertex -2 -9.49827 0
    endloop
  endfacet
  facet normal 1 0 0
    outer loop
      vertex -2 -18.1822 9.22118
      vertex -2 -18.27 0
      vertex -2 -16.2886 6.84661
    endloop
  endfacet
  facet normal 1 0 0
    outer loop
      vertex -2 -18.27 0
      vertex -2 -18.1822 9.22118
      vertex -2 -18.27 16.5176
    endloop
  endfacet
  facet normal 0 1 -0
    outer loop
      vertex -5 21.27 0
      vertex -7.5 21.27 9
      vertex -5 21.27 9
    endloop
  endfacet
  facet normal 0 1 0
    outer loop
      vertex -7.5 21.27 9
      vertex -5 21.27 0
      vertex -7.5 21.27 0
    endloop
  endfacet
  facet normal 0 0 -1
    outer loop
      vertex -5 -21.27 0
      vertex -2 -18.27 0
      vertex -2.40192 -19.77 0
    endloop
  endfacet
  facet normal 0 0 -1
    outer loop
      vertex 8 0 0
      vertex 9.76 0 0
      vertex 9.54672 -2.02922 0
    endloop
  endfacet
  facet normal 0 0 -1
    outer loop
      vertex 7.76753 -1.91453 0
      vertex 9.54672 -2.02922 0
      vertex 8.9162 -3.96975 0
    endloop
  endfacet
  facet normal 0 0 -1
    outer loop
      vertex 9.76 0 0
      vertex 8 0 0
      vertex 9.54672 2.02922 0
    endloop
  endfacet
  facet normal 0 0 -1
    outer loop
      vertex 7.76753 1.91453 0
      vertex 9.54672 2.02922 0
      vertex 8 0 0
    endloop
  endfacet
  facet normal 0 0 -1
    outer loop
      vertex 7.08365 -3.71778 0
      vertex 8.9162 -3.96975 0
      vertex 7.89601 -5.73678 0
    endloop
  endfacet
  facet normal 0 0 -1
    outer loop
      vertex 9.54672 -2.02922 0
      vertex 7.76753 -1.91453 0
      vertex 8 0 0
    endloop
  endfacet
  facet normal 0 0 -1
    outer loop
      vertex 8.9162 -3.96975 0
      vertex 7.08365 -3.71778 0
      vertex 7.76753 -1.91453 0
    endloop
  endfacet
  facet normal 0 0 -1
    outer loop
      vertex 5.98809 -5.30498 0
      vertex 7.89601 -5.73678 0
      vertex 6.53071 -7.25309 0
    endloop
  endfacet
  facet normal 0 0 -1
    outer loop
      vertex 7.89601 -5.73678 0
      vertex 5.98809 -5.30498 0
      vertex 7.08365 -3.71778 0
    endloop
  endfacet
  facet normal 0 0 -1
    outer loop
      vertex 4.54452 -6.58387 0
      vertex 6.53071 -7.25309 0
      vertex 4.88 -8.45241 0
    endloop
  endfacet
  facet normal 0 0 -1
    outer loop
      vertex 6.53071 -7.25309 0
      vertex 4.54452 -6.58387 0
      vertex 5.98809 -5.30498 0
    endloop
  endfacet
  facet normal 0 0 -1
    outer loop
      vertex 2.83684 -7.48013 0
      vertex 4.88 -8.45241 0
      vertex 3.01601 -9.28231 0
    endloop
  endfacet
  facet normal 0 0 -1
    outer loop
      vertex 4.88 -8.45241 0
      vertex 2.83684 -7.48013 0
      vertex 4.54452 -6.58387 0
    endloop
  endfacet
  facet normal 0 0 -1
    outer loop
      vertex 0.964293 -7.94167 0
      vertex 3.01601 -9.28231 0
      vertex 1.0202 -9.70653 0
    endloop
  endfacet
  facet normal 0 0 -1
    outer loop
      vertex 3.01601 -9.28231 0
      vertex 0.964293 -7.94167 0
      vertex 2.83684 -7.48013 0
    endloop
  endfacet
  facet normal 0 0 -1
    outer loop
      vertex 1.0202 -9.70653 0
      vertex -0.964293 -7.94167 0
      vertex 0.964293 -7.94167 0
    endloop
  endfacet
  facet normal 0 0 -1
    outer loop
      vertex -1.0202 -9.70653 0
      vertex -0.964293 -7.94167 0
      vertex 1.0202 -9.70653 0
    endloop
  endfacet
  facet normal 0 0 -1
    outer loop
      vertex -2 -9.49827 0
      vertex -0.964293 -7.94167 0
      vertex -1.0202 -9.70653 0
    endloop
  endfacet
  facet normal 0 0 -1
    outer loop
      vertex -2 -9.49827 0
      vertex -2.83684 -7.48013 0
      vertex -0.964293 -7.94167 0
    endloop
  endfacet
  facet normal 0 0 -1
    outer loop
      vertex -2 -18.27 0
      vertex -10.5 -18.27 0
      vertex -2 -9.49827 0
    endloop
  endfacet
  facet normal 0 0 -1
    outer loop
      vertex -5 -21.27 0
      vertex -2.40192 -19.77 0
      vertex -3.5 -20.8681 0
    endloop
  endfacet
  facet normal 0 -0 -1
    outer loop
      vertex -4.54452 -6.58387 0
      vertex -2 -9.49827 0
      vertex -10.5 -18.27 0
    endloop
  endfacet
  facet normal -0 0 -1
    outer loop
      vertex -2 -18.27 0
      vertex -5 -21.27 0
      vertex -10.5 -18.27 0
    endloop
  endfacet
  facet normal 0 0 -1
    outer loop
      vertex -2 -9.49827 0
      vertex -4.54452 -6.58387 0
      vertex -2.83684 -7.48013 0
    endloop
  endfacet
  facet normal -0 0 -1
    outer loop
      vertex -4.54452 -6.58387 0
      vertex -10.5 -18.27 0
      vertex -5.98809 -5.30498 0
    endloop
  endfacet
  facet normal 0 0 -1
    outer loop
      vertex -10.5 -18.27 0
      vertex -5 -21.27 0
      vertex -7.5 -21.27 0
    endloop
  endfacet
  facet normal -0 0 -1
    outer loop
      vertex -5.98809 -5.30498 0
      vertex -10.5 -18.27 0
      vertex -7.08365 -3.71778 0
    endloop
  endfacet
  facet normal -0 0 -1
    outer loop
      vertex -7.08365 -3.71778 0
      vertex -10.5 -18.27 0
      vertex -7.76753 -1.91453 0
    endloop
  endfacet
  facet normal -0 0 -1
    outer loop
      vertex -7.76753 -1.91453 0
      vertex -10.5 -18.27 0
      vertex -8 0 0
    endloop
  endfacet
  facet normal 0 0 -1
    outer loop
      vertex -10.5 -18.27 0
      vertex -7.5 -21.27 0
      vertex -9 -20.8681 0
    endloop
  endfacet
  facet normal 0 0 -1
    outer loop
      vertex -10.5 -18.27 0
      vertex -9 -20.8681 0
      vertex -10.0981 -19.77 0
    endloop
  endfacet
  facet normal -0 0 -1
    outer loop
      vertex -8 0 0
      vertex -10.5 -18.27 0
      vertex -10.5 18.27 0
    endloop
  endfacet
  facet normal 0 0 -1
    outer loop
      vertex -8 0 0
      vertex -10.5 18.27 0
      vertex -9 20.8681 0
    endloop
  endfacet
  facet normal 0 0 -1
    outer loop
      vertex -9 20.8681 0
      vertex -10.5 18.27 0
      vertex -10.0981 19.77 0
    endloop
  endfacet
  facet normal -0 0 -1
    outer loop
      vertex 9.54672 2.02922 0
      vertex 7.76753 1.91453 0
      vertex 8.9162 3.96975 0
    endloop
  endfacet
  facet normal 0 0 -1
    outer loop
      vertex 7.08365 3.71778 0
      vertex 8.9162 3.96975 0
      vertex 7.76753 1.91453 0
    endloop
  endfacet
  facet normal -0 0 -1
    outer loop
      vertex 8.9162 3.96975 0
      vertex 7.08365 3.71778 0
      vertex 7.89601 5.73678 0
    endloop
  endfacet
  facet normal 0 0 -1
    outer loop
      vertex 5.98809 5.30498 0
      vertex 7.89601 5.73678 0
      vertex 7.08365 3.71778 0
    endloop
  endfacet
  facet normal -0 0 -1
    outer loop
      vertex 7.89601 5.73678 0
      vertex 5.98809 5.30498 0
      vertex 6.53071 7.25309 0
    endloop
  endfacet
  facet normal 0 0 -1
    outer loop
      vertex 4.54452 6.58387 0
      vertex 6.53071 7.25309 0
      vertex 5.98809 5.30498 0
    endloop
  endfacet
  facet normal -0 0 -1
    outer loop
      vertex 6.53071 7.25309 0
      vertex 4.54452 6.58387 0
      vertex 4.88 8.45241 0
    endloop
  endfacet
  facet normal 0 0 -1
    outer loop
      vertex 2.83684 7.48013 0
      vertex 4.88 8.45241 0
      vertex 4.54452 6.58387 0
    endloop
  endfacet
  facet normal -0 0 -1
    outer loop
      vertex 4.88 8.45241 0
      vertex 2.83684 7.48013 0
      vertex 3.01601 9.28231 0
    endloop
  endfacet
  facet normal 0 0 -1
    outer loop
      vertex 0.964293 7.94167 0
      vertex 3.01601 9.28231 0
      vertex 2.83684 7.48013 0
    endloop
  endfacet
  facet normal -0 0 -1
    outer loop
      vertex 3.01601 9.28231 0
      vertex 0.964293 7.94167 0
      vertex 1.0202 9.70653 0
    endloop
  endfacet
  facet normal 0 0 -1
    outer loop
      vertex -0.964293 7.94167 0
      vertex 1.0202 9.70653 0
      vertex 0.964293 7.94167 0
    endloop
  endfacet
  facet normal 0 0 -1
    outer loop
      vertex -0.964293 7.94167 0
      vertex -1.0202 9.70653 0
      vertex 1.0202 9.70653 0
    endloop
  endfacet
  facet normal 0 0 -1
    outer loop
      vertex -0.964293 7.94167 0
      vertex -2 9.49827 0
      vertex -1.0202 9.70653 0
    endloop
  endfacet
  facet normal 0 0 -1
    outer loop
      vertex -9 20.8681 0
      vertex -2 18.27 0
      vertex -2 9.49827 0
    endloop
  endfacet
  facet normal 0 0 -1
    outer loop
      vertex -2.83684 7.48013 0
      vertex -2 9.49827 0
      vertex -0.964293 7.94167 0
    endloop
  endfacet
  facet normal 0 0 -1
    outer loop
      vertex -4.54452 6.58387 0
      vertex -2 9.49827 0
      vertex -2.83684 7.48013 0
    endloop
  endfacet
  facet normal 0 -0 -1
    outer loop
      vertex -7.5 21.27 0
      vertex -2 18.27 0
      vertex -9 20.8681 0
    endloop
  endfacet
  facet normal -0 0 -1
    outer loop
      vertex -2 9.49827 0
      vertex -4.54452 6.58387 0
      vertex -9 20.8681 0
    endloop
  endfacet
  facet normal 0 0 -1
    outer loop
      vertex -2.40192 19.77 0
      vertex -5 21.27 0
      vertex -3.5 20.8681 0
    endloop
  endfacet
  facet normal 0 0 -1
    outer loop
      vertex -9 20.8681 0
      vertex -4.54452 6.58387 0
      vertex -5.98809 5.30498 0
    endloop
  endfacet
  facet normal 0 0 -1
    outer loop
      vertex -9 20.8681 0
      vertex -5.98809 5.30498 0
      vertex -7.08365 3.71778 0
    endloop
  endfacet
  facet normal -0 -0 -1
    outer loop
      vertex -5 21.27 0
      vertex -2 18.27 0
      vertex -7.5 21.27 0
    endloop
  endfacet
  facet normal 0 0 -1
    outer loop
      vertex -9 20.8681 0
      vertex -7.08365 3.71778 0
      vertex -7.76753 1.91453 0
    endloop
  endfacet
  facet normal 0 0 -1
    outer loop
      vertex -9 20.8681 0
      vertex -7.76753 1.91453 0
      vertex -8 0 0
    endloop
  endfacet
  facet normal 0 0 -1
    outer loop
      vertex -2 18.27 0
      vertex -5 21.27 0
      vertex -2.40192 19.77 0
    endloop
  endfacet
  facet normal 0 -1 0
    outer loop
      vertex -7.5 -21.27 0
      vertex -5 -21.27 9
      vertex -7.5 -21.27 9
    endloop
  endfacet
  facet normal 0 -1 -0
    outer loop
      vertex -5 -21.27 9
      vertex -7.5 -21.27 0
      vertex -5 -21.27 0
    endloop
  endfacet
  facet normal 0 -0.433884 -0.900969
    outer loop
      vertex -10.5 14.77 12
      vertex -2.5 16.3337 11.247
      vertex -2.5 14.77 12
    endloop
  endfacet
  facet normal -0 -0.433884 -0.900969
    outer loop
      vertex -2.5 16.3337 11.247
      vertex -10.5 14.77 12
      vertex -10.5 16.3337 11.247
    endloop
  endfacet
  facet normal -0 0 1
    outer loop
      vertex -10.5 15.6378 8.19806
      vertex -2.5 13.9022 8.19806
      vertex -2.5 15.6378 8.19806
    endloop
  endfacet
  facet normal 0 0 1
    outer loop
      vertex -2.5 13.9022 8.19806
      vertex -10.5 15.6378 8.19806
      vertex -10.5 13.9022 8.19806
    endloop
  endfacet
  facet normal 0 -0.974928 -0.222522
    outer loop
      vertex -10.5 16.7199 9.55496
      vertex -2.5 16.3337 11.247
      vertex -10.5 16.3337 11.247
    endloop
  endfacet
  facet normal 0 -0.974928 -0.222522
    outer loop
      vertex -2.5 16.3337 11.247
      vertex -10.5 16.7199 9.55496
      vertex -2.5 16.7199 9.55496
    endloop
  endfacet
  facet normal 0 -0.781831 0.62349
    outer loop
      vertex -10.5 15.6378 8.19806
      vertex -2.5 16.7199 9.55496
      vertex -10.5 16.7199 9.55496
    endloop
  endfacet
  facet normal 0 -0.781831 0.62349
    outer loop
      vertex -2.5 16.7199 9.55496
      vertex -10.5 15.6378 8.19806
      vertex -2.5 15.6378 8.19806
    endloop
  endfacet
  facet normal 0 0.433884 -0.900969
    outer loop
      vertex -10.5 13.2063 11.247
      vertex -2.5 14.77 12
      vertex -2.5 13.2063 11.247
    endloop
  endfacet
  facet normal 0 0.433884 -0.900969
    outer loop
      vertex -2.5 14.77 12
      vertex -10.5 13.2063 11.247
      vertex -10.5 14.77 12
    endloop
  endfacet
  facet normal 0 0.974928 -0.222521
    outer loop
      vertex -2.5 12.8201 9.55496
      vertex -10.5 13.2063 11.247
      vertex -2.5 13.2063 11.247
    endloop
  endfacet
  facet normal 0 0.974928 -0.222521
    outer loop
      vertex -10.5 13.2063 11.247
      vertex -2.5 12.8201 9.55496
      vertex -10.5 12.8201 9.55496
    endloop
  endfacet
  facet normal 0 0.781831 0.62349
    outer loop
      vertex -2.5 13.9022 8.19806
      vertex -10.5 12.8201 9.55496
      vertex -2.5 12.8201 9.55496
    endloop
  endfacet
  facet normal 0 0.781831 0.62349
    outer loop
      vertex -10.5 12.8201 9.55496
      vertex -2.5 13.9022 8.19806
      vertex -10.5 13.9022 8.19806
    endloop
  endfacet
  facet normal 0 -0.433884 -0.900969
    outer loop
      vertex -2.5 14.77 13.5
      vertex -2 17.5064 12.1822
      vertex -2 14.77 13.5
    endloop
  endfacet
  facet normal -0 -0.433884 -0.900969
    outer loop
      vertex -2 17.5064 12.1822
      vertex -2.5 14.77 13.5
      vertex -2.5 17.5064 12.1822
    endloop
  endfacet
  facet normal -0 0 1
    outer loop
      vertex -2.5 16.2886 6.84661
      vertex -2 13.2514 6.84661
      vertex -2 16.2886 6.84661
    endloop
  endfacet
  facet normal 0 0 1
    outer loop
      vertex -2 13.2514 6.84661
      vertex -2.5 16.2886 6.84661
      vertex -2.5 13.2514 6.84661
    endloop
  endfacet
  facet normal 0 0.781831 0.62349
    outer loop
      vertex -2 13.2514 6.84661
      vertex -2.5 11.3578 9.22118
      vertex -2 11.3578 9.22118
    endloop
  endfacet
  facet normal 0 0.781831 0.62349
    outer loop
      vertex -2.5 11.3578 9.22118
      vertex -2 13.2514 6.84661
      vertex -2.5 13.2514 6.84661
    endloop
  endfacet
  facet normal 0 -0.781832 0.62349
    outer loop
      vertex -2.5 16.2886 6.84661
      vertex -2 18.1822 9.22118
      vertex -2.5 18.1822 9.22118
    endloop
  endfacet
  facet normal 0 -0.781832 0.62349
    outer loop
      vertex -2 18.1822 9.22118
      vertex -2.5 16.2886 6.84661
      vertex -2 16.2886 6.84661
    endloop
  endfacet
  facet normal 0 -0.974928 -0.222521
    outer loop
      vertex -2.5 18.1822 9.22118
      vertex -2 17.5064 12.1822
      vertex -2.5 17.5064 12.1822
    endloop
  endfacet
  facet normal 0 -0.974928 -0.222521
    outer loop
      vertex -2 17.5064 12.1822
      vertex -2.5 18.1822 9.22118
      vertex -2 18.1822 9.22118
    endloop
  endfacet
  facet normal 1 0 0
    outer loop
      vertex -2.5 17.5064 12.1822
      vertex -2.5 16.3337 11.247
      vertex -2.5 16.7199 9.55496
    endloop
  endfacet
  facet normal 1 0 0
    outer loop
      vertex -2.5 14.77 13.5
      vertex -2.5 16.3337 11.247
      vertex -2.5 17.5064 12.1822
    endloop
  endfacet
  facet normal 1 0 0
    outer loop
      vertex -2.5 14.77 13.5
      vertex -2.5 14.77 12
      vertex -2.5 16.3337 11.247
    endloop
  endfacet
  facet normal 1 0 0
    outer loop
      vertex -2.5 14.77 13.5
      vertex -2.5 13.2063 11.247
      vertex -2.5 14.77 12
    endloop
  endfacet
  facet normal 1 0 0
    outer loop
      vertex -2.5 13.2063 11.247
      vertex -2.5 12.0336 12.1822
      vertex -2.5 12.8201 9.55496
    endloop
  endfacet
  facet normal 1 -0 0
    outer loop
      vertex -2.5 12.0336 12.1822
      vertex -2.5 13.2063 11.247
      vertex -2.5 14.77 13.5
    endloop
  endfacet
  facet normal 1 -0 0
    outer loop
      vertex -2.5 16.7199 9.55496
      vertex -2.5 18.1822 9.22118
      vertex -2.5 17.5064 12.1822
    endloop
  endfacet
  facet normal 1 0 0
    outer loop
      vertex -2.5 16.7199 9.55496
      vertex -2.5 16.2886 6.84661
      vertex -2.5 18.1822 9.22118
    endloop
  endfacet
  facet normal 1 -0 0
    outer loop
      vertex -2.5 15.6378 8.19806
      vertex -2.5 16.2886 6.84661
      vertex -2.5 16.7199 9.55496
    endloop
  endfacet
  facet normal 1 -0 0
    outer loop
      vertex -2.5 13.9022 8.19806
      vertex -2.5 16.2886 6.84661
      vertex -2.5 15.6378 8.19806
    endloop
  endfacet
  facet normal 1 0 0
    outer loop
      vertex -2.5 13.9022 8.19806
      vertex -2.5 13.2514 6.84661
      vertex -2.5 16.2886 6.84661
    endloop
  endfacet
  facet normal 1 0 0
    outer loop
      vertex -2.5 12.8201 9.55496
      vertex -2.5 13.2514 6.84661
      vertex -2.5 13.9022 8.19806
    endloop
  endfacet
  facet normal 1 0 0
    outer loop
      vertex -2.5 11.3578 9.22118
      vertex -2.5 12.8201 9.55496
      vertex -2.5 12.0336 12.1822
    endloop
  endfacet
  facet normal 1 0 0
    outer loop
      vertex -2.5 12.8201 9.55496
      vertex -2.5 11.3578 9.22118
      vertex -2.5 13.2514 6.84661
    endloop
  endfacet
  facet normal 0 0.974928 -0.222521
    outer loop
      vertex -2 11.3578 9.22118
      vertex -2.5 12.0336 12.1822
      vertex -2 12.0336 12.1822
    endloop
  endfacet
  facet normal 0 0.974928 -0.222521
    outer loop
      vertex -2.5 12.0336 12.1822
      vertex -2 11.3578 9.22118
      vertex -2.5 11.3578 9.22118
    endloop
  endfacet
  facet normal 0 0.433884 -0.900969
    outer loop
      vertex -2.5 12.0336 12.1822
      vertex -2 14.77 13.5
      vertex -2 12.0336 12.1822
    endloop
  endfacet
  facet normal 0 0.433884 -0.900969
    outer loop
      vertex -2 14.77 13.5
      vertex -2.5 12.0336 12.1822
      vertex -2.5 14.77 13.5
    endloop
  endfacet
  facet normal 0 -0.433884 -0.900969
    outer loop
      vertex -10.5 -14.77 12
      vertex -2.5 -13.2063 11.247
      vertex -2.5 -14.77 12
    endloop
  endfacet
  facet normal -0 -0.433884 -0.900969
    outer loop
      vertex -2.5 -13.2063 11.247
      vertex -10.5 -14.77 12
      vertex -10.5 -13.2063 11.247
    endloop
  endfacet
  facet normal -0 0 1
    outer loop
      vertex -10.5 -13.9022 8.19806
      vertex -2.5 -15.6378 8.19806
      vertex -2.5 -13.9022 8.19806
    endloop
  endfacet
  facet normal 0 0 1
    outer loop
      vertex -2.5 -15.6378 8.19806
      vertex -10.5 -13.9022 8.19806
      vertex -10.5 -15.6378 8.19806
    endloop
  endfacet
  facet normal 0 -0.974928 -0.222521
    outer loop
      vertex -10.5 -12.8201 9.55496
      vertex -2.5 -13.2063 11.247
      vertex -10.5 -13.2063 11.247
    endloop
  endfacet
  facet normal 0 -0.974928 -0.222521
    outer loop
      vertex -2.5 -13.2063 11.247
      vertex -10.5 -12.8201 9.55496
      vertex -2.5 -12.8201 9.55496
    endloop
  endfacet
  facet normal 0 -0.781831 0.62349
    outer loop
      vertex -10.5 -13.9022 8.19806
      vertex -2.5 -12.8201 9.55496
      vertex -10.5 -12.8201 9.55496
    endloop
  endfacet
  facet normal 0 -0.781831 0.62349
    outer loop
      vertex -2.5 -12.8201 9.55496
      vertex -10.5 -13.9022 8.19806
      vertex -2.5 -13.9022 8.19806
    endloop
  endfacet
  facet normal 0 0.433884 -0.900969
    outer loop
      vertex -10.5 -16.3337 11.247
      vertex -2.5 -14.77 12
      vertex -2.5 -16.3337 11.247
    endloop
  endfacet
  facet normal 0 0.433884 -0.900969
    outer loop
      vertex -2.5 -14.77 12
      vertex -10.5 -16.3337 11.247
      vertex -10.5 -14.77 12
    endloop
  endfacet
  facet normal 0 0.974928 -0.222522
    outer loop
      vertex -2.5 -16.7199 9.55496
      vertex -10.5 -16.3337 11.247
      vertex -2.5 -16.3337 11.247
    endloop
  endfacet
  facet normal 0 0.974928 -0.222522
    outer loop
      vertex -10.5 -16.3337 11.247
      vertex -2.5 -16.7199 9.55496
      vertex -10.5 -16.7199 9.55496
    endloop
  endfacet
  facet normal 0 0.781831 0.62349
    outer loop
      vertex -2.5 -15.6378 8.19806
      vertex -10.5 -16.7199 9.55496
      vertex -2.5 -16.7199 9.55496
    endloop
  endfacet
  facet normal 0 0.781831 0.62349
    outer loop
      vertex -10.5 -16.7199 9.55496
      vertex -2.5 -15.6378 8.19806
      vertex -10.5 -15.6378 8.19806
    endloop
  endfacet
  facet normal 0 -0.433884 -0.900969
    outer loop
      vertex -2.5 -14.77 13.5
      vertex -2 -12.0336 12.1822
      vertex -2 -14.77 13.5
    endloop
  endfacet
  facet normal -0 -0.433884 -0.900969
    outer loop
      vertex -2 -12.0336 12.1822
      vertex -2.5 -14.77 13.5
      vertex -2.5 -12.0336 12.1822
    endloop
  endfacet
  facet normal -0 0 1
    outer loop
      vertex -2.5 -13.2514 6.84661
      vertex -2 -16.2886 6.84661
      vertex -2 -13.2514 6.84661
    endloop
  endfacet
  facet normal 0 0 1
    outer loop
      vertex -2 -16.2886 6.84661
      vertex -2.5 -13.2514 6.84661
      vertex -2.5 -16.2886 6.84661
    endloop
  endfacet
  facet normal 0 0.781832 0.62349
    outer loop
      vertex -2 -16.2886 6.84661
      vertex -2.5 -18.1822 9.22118
      vertex -2 -18.1822 9.22118
    endloop
  endfacet
  facet normal 0 0.781832 0.62349
    outer loop
      vertex -2.5 -18.1822 9.22118
      vertex -2 -16.2886 6.84661
      vertex -2.5 -16.2886 6.84661
    endloop
  endfacet
  facet normal 0 -0.781831 0.62349
    outer loop
      vertex -2.5 -13.2514 6.84661
      vertex -2 -11.3578 9.22118
      vertex -2.5 -11.3578 9.22118
    endloop
  endfacet
  facet normal 0 -0.781831 0.62349
    outer loop
      vertex -2 -11.3578 9.22118
      vertex -2.5 -13.2514 6.84661
      vertex -2 -13.2514 6.84661
    endloop
  endfacet
  facet normal 0 -0.974928 -0.222521
    outer loop
      vertex -2.5 -11.3578 9.22118
      vertex -2 -12.0336 12.1822
      vertex -2.5 -12.0336 12.1822
    endloop
  endfacet
  facet normal 0 -0.974928 -0.222521
    outer loop
      vertex -2 -12.0336 12.1822
      vertex -2.5 -11.3578 9.22118
      vertex -2 -11.3578 9.22118
    endloop
  endfacet
  facet normal 1 0 0
    outer loop
      vertex -2.5 -12.0336 12.1822
      vertex -2.5 -13.2063 11.247
      vertex -2.5 -12.8201 9.55496
    endloop
  endfacet
  facet normal 1 0 0
    outer loop
      vertex -2.5 -14.77 13.5
      vertex -2.5 -13.2063 11.247
      vertex -2.5 -12.0336 12.1822
    endloop
  endfacet
  facet normal 1 0 0
    outer loop
      vertex -2.5 -14.77 13.5
      vertex -2.5 -14.77 12
      vertex -2.5 -13.2063 11.247
    endloop
  endfacet
  facet normal 1 0 0
    outer loop
      vertex -2.5 -14.77 13.5
      vertex -2.5 -16.3337 11.247
      vertex -2.5 -14.77 12
    endloop
  endfacet
  facet normal 1 0 0
    outer loop
      vertex -2.5 -16.3337 11.247
      vertex -2.5 -17.5064 12.1822
      vertex -2.5 -16.7199 9.55496
    endloop
  endfacet
  facet normal 1 -0 0
    outer loop
      vertex -2.5 -17.5064 12.1822
      vertex -2.5 -16.3337 11.247
      vertex -2.5 -14.77 13.5
    endloop
  endfacet
  facet normal 1 -0 0
    outer loop
      vertex -2.5 -12.8201 9.55496
      vertex -2.5 -11.3578 9.22118
      vertex -2.5 -12.0336 12.1822
    endloop
  endfacet
  facet normal 1 0 0
    outer loop
      vertex -2.5 -12.8201 9.55496
      vertex -2.5 -13.2514 6.84661
      vertex -2.5 -11.3578 9.22118
    endloop
  endfacet
  facet normal 1 -0 0
    outer loop
      vertex -2.5 -13.9022 8.19806
      vertex -2.5 -13.2514 6.84661
      vertex -2.5 -12.8201 9.55496
    endloop
  endfacet
  facet normal 1 -0 0
    outer loop
      vertex -2.5 -15.6378 8.19806
      vertex -2.5 -13.2514 6.84661
      vertex -2.5 -13.9022 8.19806
    endloop
  endfacet
  facet normal 1 0 0
    outer loop
      vertex -2.5 -15.6378 8.19806
      vertex -2.5 -16.2886 6.84661
      vertex -2.5 -13.2514 6.84661
    endloop
  endfacet
  facet normal 1 0 0
    outer loop
      vertex -2.5 -16.7199 9.55496
      vertex -2.5 -16.2886 6.84661
      vertex -2.5 -15.6378 8.19806
    endloop
  endfacet
  facet normal 1 0 0
    outer loop
      vertex -2.5 -18.1822 9.22118
      vertex -2.5 -16.7199 9.55496
      vertex -2.5 -17.5064 12.1822
    endloop
  endfacet
  facet normal 1 0 0
    outer loop
      vertex -2.5 -16.7199 9.55496
      vertex -2.5 -18.1822 9.22118
      vertex -2.5 -16.2886 6.84661
    endloop
  endfacet
  facet normal 0 0.974928 -0.222521
    outer loop
      vertex -2 -18.1822 9.22118
      vertex -2.5 -17.5064 12.1822
      vertex -2 -17.5064 12.1822
    endloop
  endfacet
  facet normal 0 0.974928 -0.222521
    outer loop
      vertex -2.5 -17.5064 12.1822
      vertex -2 -18.1822 9.22118
      vertex -2.5 -18.1822 9.22118
    endloop
  endfacet
  facet normal 0 0.433884 -0.900969
    outer loop
      vertex -2.5 -17.5064 12.1822
      vertex -2 -14.77 13.5
      vertex -2 -17.5064 12.1822
    endloop
  endfacet
  facet normal 0 0.433884 -0.900969
    outer loop
      vertex -2 -14.77 13.5
      vertex -2.5 -17.5064 12.1822
      vertex -2.5 -14.77 13.5
    endloop
  endfacet
  facet normal 1 -0 0
    outer loop
      vertex -8.38293 -0.979824 20
      vertex -8.38293 0.979824 11.4
      vertex -8.38293 0.979824 20
    endloop
  endfacet
  facet normal 1 0 0
    outer loop
      vertex -8.38293 0.979824 11.4
      vertex -8.38293 -0.979824 20
      vertex -8.38293 -0.979824 11.4
    endloop
  endfacet
  facet normal 0.173648 -0.984808 0
    outer loop
      vertex -2.42062 8.08543 11.4
      vertex -2 8.1596 20
      vertex -2.42062 8.08543 20
    endloop
  endfacet
  facet normal 0.173648 -0.984808 0
    outer loop
      vertex -2 8.1596 20
      vertex -2.42062 8.08543 11.4
      vertex -2 8.1596 11.4
    endloop
  endfacet
  facet normal 0.766044 -0.642788 0
    outer loop
      vertex -7.05152 4.63786 20
      vertex -5.79188 6.13903 11.4
      vertex -5.79188 6.13903 20
    endloop
  endfacet
  facet normal 0.766044 -0.642788 0
    outer loop
      vertex -5.79188 6.13903 11.4
      vertex -7.05152 4.63786 20
      vertex -7.05152 4.63786 11.4
    endloop
  endfacet
  facet normal 0.597158 -0.802123 0
    outer loop
      vertex -5.79188 6.13903 11.4
      vertex -4.22 7.30925 20
      vertex -5.79188 6.13903 20
    endloop
  endfacet
  facet normal 0.597158 -0.802123 0
    outer loop
      vertex -4.22 7.30925 20
      vertex -5.79188 6.13903 11.4
      vertex -4.22 7.30925 11.4
    endloop
  endfacet
  facet normal 0.893633 -0.448799 0
    outer loop
      vertex -7.93101 2.88665 20
      vertex -7.05152 4.63786 11.4
      vertex -7.05152 4.63786 20
    endloop
  endfacet
  facet normal 0.893633 -0.448799 0
    outer loop
      vertex -7.05152 4.63786 11.4
      vertex -7.93101 2.88665 20
      vertex -7.93101 2.88665 11.4
    endloop
  endfacet
  facet normal 0.973045 -0.230616 0
    outer loop
      vertex -8.38293 0.979824 20
      vertex -7.93101 2.88665 11.4
      vertex -7.93101 2.88665 20
    endloop
  endfacet
  facet normal 0.973045 -0.230616 0
    outer loop
      vertex -7.93101 2.88665 11.4
      vertex -8.38293 0.979824 20
      vertex -8.38293 0.979824 11.4
    endloop
  endfacet
  facet normal 0.39608 -0.918216 0
    outer loop
      vertex -4.22 7.30925 11.4
      vertex -2.42062 8.08543 20
      vertex -4.22 7.30925 20
    endloop
  endfacet
  facet normal 0.39608 -0.918216 0
    outer loop
      vertex -2.42062 8.08543 20
      vertex -4.22 7.30925 11.4
      vertex -2.42062 8.08543 11.4
    endloop
  endfacet
  facet normal 0.597158 0.802123 -0
    outer loop
      vertex -4.22 -7.30925 11.4
      vertex -5.79188 -6.13903 20
      vertex -4.22 -7.30925 20
    endloop
  endfacet
  facet normal 0.597158 0.802123 0
    outer loop
      vertex -5.79188 -6.13903 20
      vertex -4.22 -7.30925 11.4
      vertex -5.79188 -6.13903 11.4
    endloop
  endfacet
  facet normal 0.173648 0.984808 -0
    outer loop
      vertex -2 -8.1596 11.4
      vertex -2.42062 -8.08543 20
      vertex -2 -8.1596 20
    endloop
  endfacet
  facet normal 0.173648 0.984808 0
    outer loop
      vertex -2.42062 -8.08543 20
      vertex -2 -8.1596 11.4
      vertex -2.42062 -8.08543 11.4
    endloop
  endfacet
  facet normal 0.766044 0.642788 0
    outer loop
      vertex -5.79188 -6.13903 20
      vertex -7.05152 -4.63786 11.4
      vertex -7.05152 -4.63786 20
    endloop
  endfacet
  facet normal 0.766044 0.642788 0
    outer loop
      vertex -7.05152 -4.63786 11.4
      vertex -5.79188 -6.13903 20
      vertex -5.79188 -6.13903 11.4
    endloop
  endfacet
  facet normal 0.973045 0.230616 0
    outer loop
      vertex -7.93101 -2.88665 20
      vertex -8.38293 -0.979824 11.4
      vertex -8.38293 -0.979824 20
    endloop
  endfacet
  facet normal 0.973045 0.230616 0
    outer loop
      vertex -8.38293 -0.979824 11.4
      vertex -7.93101 -2.88665 20
      vertex -7.93101 -2.88665 11.4
    endloop
  endfacet
  facet normal 0.39608 0.918216 -0
    outer loop
      vertex -2.42062 -8.08543 11.4
      vertex -4.22 -7.30925 20
      vertex -2.42062 -8.08543 20
    endloop
  endfacet
  facet normal 0.39608 0.918216 0
    outer loop
      vertex -4.22 -7.30925 20
      vertex -2.42062 -8.08543 11.4
      vertex -4.22 -7.30925 11.4
    endloop
  endfacet
  facet normal 0.893633 0.448799 0
    outer loop
      vertex -7.05152 -4.63786 20
      vertex -7.93101 -2.88665 11.4
      vertex -7.93101 -2.88665 20
    endloop
  endfacet
  facet normal 0.893633 0.448799 0
    outer loop
      vertex -7.93101 -2.88665 11.4
      vertex -7.05152 -4.63786 20
      vertex -7.05152 -4.63786 11.4
    endloop
  endfacet
  facet normal 0 0 1
    outer loop
      vertex 8 0 11.4
      vertex 9.76 0 11.4
      vertex 9.54672 2.02922 11.4
    endloop
  endfacet
  facet normal 0 0 1
    outer loop
      vertex 7.76753 1.91453 11.4
      vertex 9.54672 2.02922 11.4
      vertex 8.9162 3.96975 11.4
    endloop
  endfacet
  facet normal 0 0 1
    outer loop
      vertex 9.76 0 11.4
      vertex 8 0 11.4
      vertex 9.54672 -2.02922 11.4
    endloop
  endfacet
  facet normal -0 0 1
    outer loop
      vertex 7.76753 -1.91453 11.4
      vertex 9.54672 -2.02922 11.4
      vertex 8 0 11.4
    endloop
  endfacet
  facet normal 0 0 1
    outer loop
      vertex 7.08365 3.71778 11.4
      vertex 8.9162 3.96975 11.4
      vertex 7.89601 5.73678 11.4
    endloop
  endfacet
  facet normal 0 0 1
    outer loop
      vertex 9.54672 2.02922 11.4
      vertex 7.76753 1.91453 11.4
      vertex 8 0 11.4
    endloop
  endfacet
  facet normal 0 0 1
    outer loop
      vertex 8.9162 3.96975 11.4
      vertex 7.08365 3.71778 11.4
      vertex 7.76753 1.91453 11.4
    endloop
  endfacet
  facet normal 0 0 1
    outer loop
      vertex 5.98809 5.30498 11.4
      vertex 7.89601 5.73678 11.4
      vertex 6.53071 7.25309 11.4
    endloop
  endfacet
  facet normal 0 0 1
    outer loop
      vertex 7.89601 5.73678 11.4
      vertex 5.98809 5.30498 11.4
      vertex 7.08365 3.71778 11.4
    endloop
  endfacet
  facet normal 0 0 1
    outer loop
      vertex 4.54452 6.58387 11.4
      vertex 6.53071 7.25309 11.4
      vertex 4.88 8.45241 11.4
    endloop
  endfacet
  facet normal 0 0 1
    outer loop
      vertex 6.53071 7.25309 11.4
      vertex 4.54452 6.58387 11.4
      vertex 5.98809 5.30498 11.4
    endloop
  endfacet
  facet normal 0 0 1
    outer loop
      vertex 2.83684 7.48013 11.4
      vertex 4.88 8.45241 11.4
      vertex 3.01601 9.28231 11.4
    endloop
  endfacet
  facet normal 0 0 1
    outer loop
      vertex 4.88 8.45241 11.4
      vertex 2.83684 7.48013 11.4
      vertex 4.54452 6.58387 11.4
    endloop
  endfacet
  facet normal 0 0 1
    outer loop
      vertex 0.964293 7.94167 11.4
      vertex 3.01601 9.28231 11.4
      vertex 1.0202 9.70653 11.4
    endloop
  endfacet
  facet normal 0 0 1
    outer loop
      vertex 3.01601 9.28231 11.4
      vertex 0.964293 7.94167 11.4
      vertex 2.83684 7.48013 11.4
    endloop
  endfacet
  facet normal 0 0 1
    outer loop
      vertex 1.0202 9.70653 11.4
      vertex -0.964293 7.94167 11.4
      vertex 0.964293 7.94167 11.4
    endloop
  endfacet
  facet normal -0 0 1
    outer loop
      vertex -1.0202 9.70653 11.4
      vertex -0.964293 7.94167 11.4
      vertex 1.0202 9.70653 11.4
    endloop
  endfacet
  facet normal 0 0 1
    outer loop
      vertex -2 8.1596 11.4
      vertex -1.0202 9.70653 11.4
      vertex -2 9.49827 11.4
    endloop
  endfacet
  facet normal 0 0 1
    outer loop
      vertex -1.0202 9.70653 11.4
      vertex -2 8.1596 11.4
      vertex -0.964293 7.94167 11.4
    endloop
  endfacet
  facet normal 0 0 1
    outer loop
      vertex -2.83684 7.48013 11.4
      vertex -2 8.1596 11.4
      vertex -2.42062 8.08543 11.4
    endloop
  endfacet
  facet normal 0 0 1
    outer loop
      vertex -2 8.1596 11.4
      vertex -2.83684 7.48013 11.4
      vertex -0.964293 7.94167 11.4
    endloop
  endfacet
  facet normal 0 0 1
    outer loop
      vertex -4.22 7.30925 11.4
      vertex -2.83684 7.48013 11.4
      vertex -2.42062 8.08543 11.4
    endloop
  endfacet
  facet normal -0 0 1
    outer loop
      vertex -4.22 7.30925 11.4
      vertex -4.54452 6.58387 11.4
      vertex -2.83684 7.48013 11.4
    endloop
  endfacet
  facet normal 0 0 1
    outer loop
      vertex -5.79188 6.13903 11.4
      vertex -4.54452 6.58387 11.4
      vertex -4.22 7.30925 11.4
    endloop
  endfacet
  facet normal -0 0 1
    outer loop
      vertex -5.79188 6.13903 11.4
      vertex -5.98809 5.30498 11.4
      vertex -4.54452 6.58387 11.4
    endloop
  endfacet
  facet normal 0 0 1
    outer loop
      vertex -7.05152 4.63786 11.4
      vertex -5.98809 5.30498 11.4
      vertex -5.79188 6.13903 11.4
    endloop
  endfacet
  facet normal -0 0 1
    outer loop
      vertex -7.05152 4.63786 11.4
      vertex -7.08365 3.71778 11.4
      vertex -5.98809 5.30498 11.4
    endloop
  endfacet
  facet normal 0 0 1
    outer loop
      vertex -7.93101 2.88665 11.4
      vertex -7.08365 3.71778 11.4
      vertex -7.05152 4.63786 11.4
    endloop
  endfacet
  facet normal 0 0 1
    outer loop
      vertex -7.08365 3.71778 11.4
      vertex -7.93101 2.88665 11.4
      vertex -7.76753 1.91453 11.4
    endloop
  endfacet
  facet normal 0 0 1
    outer loop
      vertex -8.38293 0.979824 11.4
      vertex -7.76753 1.91453 11.4
      vertex -7.93101 2.88665 11.4
    endloop
  endfacet
  facet normal 0 0 1
    outer loop
      vertex -7.76753 1.91453 11.4
      vertex -8.38293 0.979824 11.4
      vertex -8 0 11.4
    endloop
  endfacet
  facet normal 0 0 1
    outer loop
      vertex 9.54672 -2.02922 11.4
      vertex 7.76753 -1.91453 11.4
      vertex 8.9162 -3.96975 11.4
    endloop
  endfacet
  facet normal -0 0 1
    outer loop
      vertex 7.08365 -3.71778 11.4
      vertex 8.9162 -3.96975 11.4
      vertex 7.76753 -1.91453 11.4
    endloop
  endfacet
  facet normal 0 0 1
    outer loop
      vertex 8.9162 -3.96975 11.4
      vertex 7.08365 -3.71778 11.4
      vertex 7.89601 -5.73678 11.4
    endloop
  endfacet
  facet normal -0 0 1
    outer loop
      vertex 5.98809 -5.30498 11.4
      vertex 7.89601 -5.73678 11.4
      vertex 7.08365 -3.71778 11.4
    endloop
  endfacet
  facet normal 0 0 1
    outer loop
      vertex 7.89601 -5.73678 11.4
      vertex 5.98809 -5.30498 11.4
      vertex 6.53071 -7.25309 11.4
    endloop
  endfacet
  facet normal -0 0 1
    outer loop
      vertex 4.54452 -6.58387 11.4
      vertex 6.53071 -7.25309 11.4
      vertex 5.98809 -5.30498 11.4
    endloop
  endfacet
  facet normal 0 0 1
    outer loop
      vertex 6.53071 -7.25309 11.4
      vertex 4.54452 -6.58387 11.4
      vertex 4.88 -8.45241 11.4
    endloop
  endfacet
  facet normal -0 0 1
    outer loop
      vertex 2.83684 -7.48013 11.4
      vertex 4.88 -8.45241 11.4
      vertex 4.54452 -6.58387 11.4
    endloop
  endfacet
  facet normal 0 0 1
    outer loop
      vertex 4.88 -8.45241 11.4
      vertex 2.83684 -7.48013 11.4
      vertex 3.01601 -9.28231 11.4
    endloop
  endfacet
  facet normal -0 0 1
    outer loop
      vertex 0.964293 -7.94167 11.4
      vertex 3.01601 -9.28231 11.4
      vertex 2.83684 -7.48013 11.4
    endloop
  endfacet
  facet normal 0 0 1
    outer loop
      vertex 3.01601 -9.28231 11.4
      vertex 0.964293 -7.94167 11.4
      vertex 1.0202 -9.70653 11.4
    endloop
  endfacet
  facet normal -0 0 1
    outer loop
      vertex -0.964293 -7.94167 11.4
      vertex 1.0202 -9.70653 11.4
      vertex 0.964293 -7.94167 11.4
    endloop
  endfacet
  facet normal 0 0 1
    outer loop
      vertex -0.964293 -7.94167 11.4
      vertex -1.0202 -9.70653 11.4
      vertex 1.0202 -9.70653 11.4
    endloop
  endfacet
  facet normal 0 0 1
    outer loop
      vertex -0.964293 -7.94167 11.4
      vertex -2 -8.1596 11.4
      vertex -1.0202 -9.70653 11.4
    endloop
  endfacet
  facet normal 0 0 1
    outer loop
      vertex -2.83684 -7.48013 11.4
      vertex -2 -8.1596 11.4
      vertex -0.964293 -7.94167 11.4
    endloop
  endfacet
  facet normal 0 0 1
    outer loop
      vertex -2 -8.1596 11.4
      vertex -2.83684 -7.48013 11.4
      vertex -2.42062 -8.08543 11.4
    endloop
  endfacet
  facet normal 0 0 1
    outer loop
      vertex -2.83684 -7.48013 11.4
      vertex -4.22 -7.30925 11.4
      vertex -2.42062 -8.08543 11.4
    endloop
  endfacet
  facet normal 0 0 1
    outer loop
      vertex -4.54452 -6.58387 11.4
      vertex -4.22 -7.30925 11.4
      vertex -2.83684 -7.48013 11.4
    endloop
  endfacet
  facet normal 0 0 1
    outer loop
      vertex -4.54452 -6.58387 11.4
      vertex -5.79188 -6.13903 11.4
      vertex -4.22 -7.30925 11.4
    endloop
  endfacet
  facet normal 0 0 1
    outer loop
      vertex -5.98809 -5.30498 11.4
      vertex -5.79188 -6.13903 11.4
      vertex -4.54452 -6.58387 11.4
    endloop
  endfacet
  facet normal 0 0 1
    outer loop
      vertex -5.98809 -5.30498 11.4
      vertex -7.05152 -4.63786 11.4
      vertex -5.79188 -6.13903 11.4
    endloop
  endfacet
  facet normal 0 0 1
    outer loop
      vertex -7.08365 -3.71778 11.4
      vertex -7.05152 -4.63786 11.4
      vertex -5.98809 -5.30498 11.4
    endloop
  endfacet
  facet normal -0 0 1
    outer loop
      vertex -7.93101 -2.88665 11.4
      vertex -7.08365 -3.71778 11.4
      vertex -7.76753 -1.91453 11.4
    endloop
  endfacet
  facet normal 0 0 1
    outer loop
      vertex -7.08365 -3.71778 11.4
      vertex -7.93101 -2.88665 11.4
      vertex -7.05152 -4.63786 11.4
    endloop
  endfacet
  facet normal -0 0 1
    outer loop
      vertex -8.38293 -0.979824 11.4
      vertex -7.76753 -1.91453 11.4
      vertex -8 0 11.4
    endloop
  endfacet
  facet normal 0 0 1
    outer loop
      vertex -8.38293 -0.979824 11.4
      vertex -8 0 11.4
      vertex -8.38293 0.979824 11.4
    endloop
  endfacet
  facet normal 0 0 1
    outer loop
      vertex -7.76753 -1.91453 11.4
      vertex -8.38293 -0.979824 11.4
      vertex -7.93101 -2.88665 11.4
    endloop
  endfacet
  facet normal 0 0 1
    outer loop
      vertex -1.0202 -9.70653 11.4
      vertex -2 -8.1596 11.4
      vertex -2 -9.49827 11.4
    endloop
  endfacet
  facet normal 0.994522 0.104528 0
    outer loop
      vertex 9.76 0 11.4
      vertex 9.54672 2.02922 0
      vertex 9.54672 2.02922 11.4
    endloop
  endfacet
  facet normal 0.994522 0.104528 0
    outer loop
      vertex 9.54672 2.02922 0
      vertex 9.76 0 11.4
      vertex 9.76 0 0
    endloop
  endfacet
  facet normal 0 1 -0
    outer loop
      vertex 1.0202 9.70653 0
      vertex -1.0202 9.70653 11.4
      vertex 1.0202 9.70653 11.4
    endloop
  endfacet
  facet normal 0 1 0
    outer loop
      vertex -1.0202 9.70653 11.4
      vertex 1.0202 9.70653 0
      vertex -1.0202 9.70653 0
    endloop
  endfacet
  facet normal 0 -1 0
    outer loop
      vertex -1.0202 -9.70653 0
      vertex 1.0202 -9.70653 11.4
      vertex -1.0202 -9.70653 11.4
    endloop
  endfacet
  facet normal 0 -1 -0
    outer loop
      vertex 1.0202 -9.70653 11.4
      vertex -1.0202 -9.70653 0
      vertex 1.0202 -9.70653 0
    endloop
  endfacet
  facet normal 0.587785 0.809017 -0
    outer loop
      vertex 6.53071 7.25309 0
      vertex 4.88 8.45241 11.4
      vertex 6.53071 7.25309 11.4
    endloop
  endfacet
  facet normal 0.587785 0.809017 0
    outer loop
      vertex 4.88 8.45241 11.4
      vertex 6.53071 7.25309 0
      vertex 4.88 8.45241 0
    endloop
  endfacet
  facet normal 0.406737 0.913545 -0
    outer loop
      vertex 4.88 8.45241 0
      vertex 3.01601 9.28231 11.4
      vertex 4.88 8.45241 11.4
    endloop
  endfacet
  facet normal 0.406737 0.913545 0
    outer loop
      vertex 3.01601 9.28231 11.4
      vertex 4.88 8.45241 0
      vertex 3.01601 9.28231 0
    endloop
  endfacet
  facet normal 0.866025 -0.5 0
    outer loop
      vertex 7.89601 -5.73678 11.4
      vertex 8.9162 -3.96975 0
      vertex 8.9162 -3.96975 11.4
    endloop
  endfacet
  facet normal 0.866025 -0.5 0
    outer loop
      vertex 8.9162 -3.96975 0
      vertex 7.89601 -5.73678 11.4
      vertex 7.89601 -5.73678 0
    endloop
  endfacet
  facet normal 0.866025 0.5 0
    outer loop
      vertex 8.9162 3.96975 11.4
      vertex 7.89601 5.73678 0
      vertex 7.89601 5.73678 11.4
    endloop
  endfacet
  facet normal 0.866025 0.5 0
    outer loop
      vertex 7.89601 5.73678 0
      vertex 8.9162 3.96975 11.4
      vertex 8.9162 3.96975 0
    endloop
  endfacet
  facet normal 0.951057 0.309017 0
    outer loop
      vertex 9.54672 2.02922 11.4
      vertex 8.9162 3.96975 0
      vertex 8.9162 3.96975 11.4
    endloop
  endfacet
  facet normal 0.951057 0.309017 0
    outer loop
      vertex 8.9162 3.96975 0
      vertex 9.54672 2.02922 11.4
      vertex 9.54672 2.02922 0
    endloop
  endfacet
  facet normal 0.743145 0.669131 0
    outer loop
      vertex 7.89601 5.73678 11.4
      vertex 6.53071 7.25309 0
      vertex 6.53071 7.25309 11.4
    endloop
  endfacet
  facet normal 0.743145 0.669131 0
    outer loop
      vertex 6.53071 7.25309 0
      vertex 7.89601 5.73678 11.4
      vertex 7.89601 5.73678 0
    endloop
  endfacet
  facet normal 0.207912 0.978148 -0
    outer loop
      vertex 3.01601 9.28231 0
      vertex 1.0202 9.70653 11.4
      vertex 3.01601 9.28231 11.4
    endloop
  endfacet
  facet normal 0.207912 0.978148 0
    outer loop
      vertex 1.0202 9.70653 11.4
      vertex 3.01601 9.28231 0
      vertex 1.0202 9.70653 0
    endloop
  endfacet
  facet normal -0.207912 0.978148 0
    outer loop
      vertex -1.0202 9.70653 0
      vertex -2 9.49827 11.4
      vertex -1.0202 9.70653 11.4
    endloop
  endfacet
  facet normal -0.207912 0.978148 0
    outer loop
      vertex -2 9.49827 11.4
      vertex -1.0202 9.70653 0
      vertex -2 9.49827 0
    endloop
  endfacet
  facet normal 0.994522 -0.104528 0
    outer loop
      vertex 9.54672 -2.02922 11.4
      vertex 9.76 0 0
      vertex 9.76 0 11.4
    endloop
  endfacet
  facet normal 0.994522 -0.104528 0
    outer loop
      vertex 9.76 0 0
      vertex 9.54672 -2.02922 11.4
      vertex 9.54672 -2.02922 0
    endloop
  endfacet
  facet normal 0.207912 -0.978148 0
    outer loop
      vertex 1.0202 -9.70653 0
      vertex 3.01601 -9.28231 11.4
      vertex 1.0202 -9.70653 11.4
    endloop
  endfacet
  facet normal 0.207912 -0.978148 0
    outer loop
      vertex 3.01601 -9.28231 11.4
      vertex 1.0202 -9.70653 0
      vertex 3.01601 -9.28231 0
    endloop
  endfacet
  facet normal 0.743145 -0.669131 0
    outer loop
      vertex 6.53071 -7.25309 11.4
      vertex 7.89601 -5.73678 0
      vertex 7.89601 -5.73678 11.4
    endloop
  endfacet
  facet normal 0.743145 -0.669131 0
    outer loop
      vertex 7.89601 -5.73678 0
      vertex 6.53071 -7.25309 11.4
      vertex 6.53071 -7.25309 0
    endloop
  endfacet
  facet normal 0.951057 -0.309017 0
    outer loop
      vertex 8.9162 -3.96975 11.4
      vertex 9.54672 -2.02922 0
      vertex 9.54672 -2.02922 11.4
    endloop
  endfacet
  facet normal 0.951057 -0.309017 0
    outer loop
      vertex 9.54672 -2.02922 0
      vertex 8.9162 -3.96975 11.4
      vertex 8.9162 -3.96975 0
    endloop
  endfacet
  facet normal 0.587785 -0.809017 0
    outer loop
      vertex 4.88 -8.45241 0
      vertex 6.53071 -7.25309 11.4
      vertex 4.88 -8.45241 11.4
    endloop
  endfacet
  facet normal 0.587785 -0.809017 0
    outer loop
      vertex 6.53071 -7.25309 11.4
      vertex 4.88 -8.45241 0
      vertex 6.53071 -7.25309 0
    endloop
  endfacet
  facet normal 0.406737 -0.913545 0
    outer loop
      vertex 3.01601 -9.28231 0
      vertex 4.88 -8.45241 11.4
      vertex 3.01601 -9.28231 11.4
    endloop
  endfacet
  facet normal 0.406737 -0.913545 0
    outer loop
      vertex 4.88 -8.45241 11.4
      vertex 3.01601 -9.28231 0
      vertex 4.88 -8.45241 0
    endloop
  endfacet
  facet normal -0.207912 -0.978148 0
    outer loop
      vertex -2 -9.49827 0
      vertex -1.0202 -9.70653 11.4
      vertex -2 -9.49827 11.4
    endloop
  endfacet
  facet normal -0.207912 -0.978148 -0
    outer loop
      vertex -1.0202 -9.70653 11.4
      vertex -2 -9.49827 0
      vertex -1.0202 -9.70653 0
    endloop
  endfacet
  facet normal -0.992709 -0.120537 0
    outer loop
      vertex 8 0 0
      vertex 7.76753 1.91453 11.4
      vertex 7.76753 1.91453 0
    endloop
  endfacet
  facet normal -0.992709 -0.120537 0
    outer loop
      vertex 7.76753 1.91453 11.4
      vertex 8 0 0
      vertex 8 0 11.4
    endloop
  endfacet
  facet normal 0.992709 -0.120537 0
    outer loop
      vertex -8 0 11.4
      vertex -7.76753 1.91453 0
      vertex -7.76753 1.91453 11.4
    endloop
  endfacet
  facet normal 0.992709 -0.120537 0
    outer loop
      vertex -7.76753 1.91453 0
      vertex -8 0 11.4
      vertex -8 0 0
    endloop
  endfacet
  facet normal 0 -1 0
    outer loop
      vertex -0.964293 7.94167 0
      vertex 0.964293 7.94167 11.4
      vertex -0.964293 7.94167 11.4
    endloop
  endfacet
  facet normal 0 -1 -0
    outer loop
      vertex 0.964293 7.94167 11.4
      vertex -0.964293 7.94167 0
      vertex 0.964293 7.94167 0
    endloop
  endfacet
  facet normal 0 1 -0
    outer loop
      vertex 0.964293 -7.94167 0
      vertex -0.964293 -7.94167 11.4
      vertex 0.964293 -7.94167 11.4
    endloop
  endfacet
  facet normal 0 1 0
    outer loop
      vertex -0.964293 -7.94167 11.4
      vertex 0.964293 -7.94167 0
      vertex -0.964293 -7.94167 0
    endloop
  endfacet
  facet normal -0.663123 -0.748511 0
    outer loop
      vertex 4.54452 6.58387 0
      vertex 5.98809 5.30498 11.4
      vertex 4.54452 6.58387 11.4
    endloop
  endfacet
  facet normal -0.663123 -0.748511 -0
    outer loop
      vertex 5.98809 5.30498 11.4
      vertex 4.54452 6.58387 0
      vertex 5.98809 5.30498 0
    endloop
  endfacet
  facet normal 0.663123 -0.748511 0
    outer loop
      vertex -5.98809 5.30498 0
      vertex -4.54452 6.58387 11.4
      vertex -5.98809 5.30498 11.4
    endloop
  endfacet
  facet normal 0.663123 -0.748511 0
    outer loop
      vertex -4.54452 6.58387 11.4
      vertex -5.98809 5.30498 0
      vertex -4.54452 6.58387 0
    endloop
  endfacet
  facet normal 0.464723 -0.885456 0
    outer loop
      vertex -4.54452 6.58387 0
      vertex -2.83684 7.48013 11.4
      vertex -4.54452 6.58387 11.4
    endloop
  endfacet
  facet normal 0.464723 -0.885456 0
    outer loop
      vertex -2.83684 7.48013 11.4
      vertex -4.54452 6.58387 0
      vertex -2.83684 7.48013 0
    endloop
  endfacet
  facet normal -0.822984 -0.568065 0
    outer loop
      vertex 7.08365 3.71778 0
      vertex 5.98809 5.30498 11.4
      vertex 5.98809 5.30498 0
    endloop
  endfacet
  facet normal -0.822984 -0.568065 0
    outer loop
      vertex 5.98809 5.30498 11.4
      vertex 7.08365 3.71778 0
      vertex 7.08365 3.71778 11.4
    endloop
  endfacet
  facet normal -0.935016 -0.354605 0
    outer loop
      vertex 7.76753 1.91453 0
      vertex 7.08365 3.71778 11.4
      vertex 7.08365 3.71778 0
    endloop
  endfacet
  facet normal -0.935016 -0.354605 0
    outer loop
      vertex 7.08365 3.71778 11.4
      vertex 7.76753 1.91453 0
      vertex 7.76753 1.91453 11.4
    endloop
  endfacet
  facet normal -0.239316 -0.970942 0
    outer loop
      vertex 0.964293 7.94167 0
      vertex 2.83684 7.48013 11.4
      vertex 0.964293 7.94167 11.4
    endloop
  endfacet
  facet normal -0.239316 -0.970942 -0
    outer loop
      vertex 2.83684 7.48013 11.4
      vertex 0.964293 7.94167 0
      vertex 2.83684 7.48013 0
    endloop
  endfacet
  facet normal -0.464723 -0.885456 0
    outer loop
      vertex 2.83684 7.48013 0
      vertex 4.54452 6.58387 11.4
      vertex 2.83684 7.48013 11.4
    endloop
  endfacet
  facet normal -0.464723 -0.885456 -0
    outer loop
      vertex 4.54452 6.58387 11.4
      vertex 2.83684 7.48013 0
      vertex 4.54452 6.58387 0
    endloop
  endfacet
  facet normal 0.822984 -0.568065 0
    outer loop
      vertex -7.08365 3.71778 11.4
      vertex -5.98809 5.30498 0
      vertex -5.98809 5.30498 11.4
    endloop
  endfacet
  facet normal 0.822984 -0.568065 0
    outer loop
      vertex -5.98809 5.30498 0
      vertex -7.08365 3.71778 11.4
      vertex -7.08365 3.71778 0
    endloop
  endfacet
  facet normal 0.935016 -0.354605 0
    outer loop
      vertex -7.76753 1.91453 11.4
      vertex -7.08365 3.71778 0
      vertex -7.08365 3.71778 11.4
    endloop
  endfacet
  facet normal 0.935016 -0.354605 0
    outer loop
      vertex -7.08365 3.71778 0
      vertex -7.76753 1.91453 11.4
      vertex -7.76753 1.91453 0
    endloop
  endfacet
  facet normal 0.239316 -0.970942 0
    outer loop
      vertex -2.83684 7.48013 0
      vertex -0.964293 7.94167 11.4
      vertex -2.83684 7.48013 11.4
    endloop
  endfacet
  facet normal 0.239316 -0.970942 0
    outer loop
      vertex -0.964293 7.94167 11.4
      vertex -2.83684 7.48013 0
      vertex -0.964293 7.94167 0
    endloop
  endfacet
  facet normal -0.992709 0.120537 0
    outer loop
      vertex 7.76753 -1.91453 0
      vertex 8 0 11.4
      vertex 8 0 0
    endloop
  endfacet
  facet normal -0.992709 0.120537 0
    outer loop
      vertex 8 0 11.4
      vertex 7.76753 -1.91453 0
      vertex 7.76753 -1.91453 11.4
    endloop
  endfacet
  facet normal 0.992709 0.120537 0
    outer loop
      vertex -7.76753 -1.91453 11.4
      vertex -8 0 0
      vertex -8 0 11.4
    endloop
  endfacet
  facet normal 0.992709 0.120537 0
    outer loop
      vertex -8 0 0
      vertex -7.76753 -1.91453 11.4
      vertex -7.76753 -1.91453 0
    endloop
  endfacet
  facet normal -0.663123 0.748511 0
    outer loop
      vertex 5.98809 -5.30498 0
      vertex 4.54452 -6.58387 11.4
      vertex 5.98809 -5.30498 11.4
    endloop
  endfacet
  facet normal -0.663123 0.748511 0
    outer loop
      vertex 4.54452 -6.58387 11.4
      vertex 5.98809 -5.30498 0
      vertex 4.54452 -6.58387 0
    endloop
  endfacet
  facet normal -0.822984 0.568065 0
    outer loop
      vertex 5.98809 -5.30498 0
      vertex 7.08365 -3.71778 11.4
      vertex 7.08365 -3.71778 0
    endloop
  endfacet
  facet normal -0.822984 0.568065 0
    outer loop
      vertex 7.08365 -3.71778 11.4
      vertex 5.98809 -5.30498 0
      vertex 5.98809 -5.30498 11.4
    endloop
  endfacet
  facet normal 0.935016 0.354605 0
    outer loop
      vertex -7.08365 -3.71778 11.4
      vertex -7.76753 -1.91453 0
      vertex -7.76753 -1.91453 11.4
    endloop
  endfacet
  facet normal 0.935016 0.354605 0
    outer loop
      vertex -7.76753 -1.91453 0
      vertex -7.08365 -3.71778 11.4
      vertex -7.08365 -3.71778 0
    endloop
  endfacet
  facet normal 0.822984 0.568065 0
    outer loop
      vertex -5.98809 -5.30498 11.4
      vertex -7.08365 -3.71778 0
      vertex -7.08365 -3.71778 11.4
    endloop
  endfacet
  facet normal 0.822984 0.568065 0
    outer loop
      vertex -7.08365 -3.71778 0
      vertex -5.98809 -5.30498 11.4
      vertex -5.98809 -5.30498 0
    endloop
  endfacet
  facet normal -0.239316 0.970942 0
    outer loop
      vertex 2.83684 -7.48013 0
      vertex 0.964293 -7.94167 11.4
      vertex 2.83684 -7.48013 11.4
    endloop
  endfacet
  facet normal -0.239316 0.970942 0
    outer loop
      vertex 0.964293 -7.94167 11.4
      vertex 2.83684 -7.48013 0
      vertex 0.964293 -7.94167 0
    endloop
  endfacet
  facet normal -0.935016 0.354605 0
    outer loop
      vertex 7.08365 -3.71778 0
      vertex 7.76753 -1.91453 11.4
      vertex 7.76753 -1.91453 0
    endloop
  endfacet
  facet normal -0.935016 0.354605 0
    outer loop
      vertex 7.76753 -1.91453 11.4
      vertex 7.08365 -3.71778 0
      vertex 7.08365 -3.71778 11.4
    endloop
  endfacet
  facet normal -0.464723 0.885456 0
    outer loop
      vertex 4.54452 -6.58387 0
      vertex 2.83684 -7.48013 11.4
      vertex 4.54452 -6.58387 11.4
    endloop
  endfacet
  facet normal -0.464723 0.885456 0
    outer loop
      vertex 2.83684 -7.48013 11.4
      vertex 4.54452 -6.58387 0
      vertex 2.83684 -7.48013 0
    endloop
  endfacet
  facet normal 0.464723 0.885456 -0
    outer loop
      vertex -2.83684 -7.48013 0
      vertex -4.54452 -6.58387 11.4
      vertex -2.83684 -7.48013 11.4
    endloop
  endfacet
  facet normal 0.464723 0.885456 0
    outer loop
      vertex -4.54452 -6.58387 11.4
      vertex -2.83684 -7.48013 0
      vertex -4.54452 -6.58387 0
    endloop
  endfacet
  facet normal 0.663123 0.748511 -0
    outer loop
      vertex -4.54452 -6.58387 0
      vertex -5.98809 -5.30498 11.4
      vertex -4.54452 -6.58387 11.4
    endloop
  endfacet
  facet normal 0.663123 0.748511 0
    outer loop
      vertex -5.98809 -5.30498 11.4
      vertex -4.54452 -6.58387 0
      vertex -5.98809 -5.30498 0
    endloop
  endfacet
  facet normal 0.239316 0.970942 -0
    outer loop
      vertex -0.964293 -7.94167 0
      vertex -2.83684 -7.48013 11.4
      vertex -0.964293 -7.94167 11.4
    endloop
  endfacet
  facet normal 0.239316 0.970942 0
    outer loop
      vertex -2.83684 -7.48013 11.4
      vertex -0.964293 -7.94167 0
      vertex -2.83684 -7.48013 0
    endloop
  endfacet
  facet normal -1 0 0
    outer loop
      vertex 0 0 0
      vertex 0 0.0999994 0.0999994
      vertex 0 0.0999994 0
    endloop
  endfacet
  facet normal -1 -0 0
    outer loop
      vertex 0 0.0999994 0.0999994
      vertex 0 0 0
      vertex 0 0 0.0999994
    endloop
  endfacet
  facet normal -0 0 1
    outer loop
      vertex 0 0.0999994 0.0999994
      vertex 0.0999994 0 0.0999994
      vertex 0.0999994 0.0999994 0.0999994
    endloop
  endfacet
  facet normal 0 0 1
    outer loop
      vertex 0.0999994 0 0.0999994
      vertex 0 0.0999994 0.0999994
      vertex 0 0 0.0999994
    endloop
  endfacet
  facet normal 1 -0 0
    outer loop
      vertex 0.0999994 0 0.0999994
      vertex 0.0999994 0.0999994 0
      vertex 0.0999994 0.0999994 0.0999994
    endloop
  endfacet
  facet normal 1 0 0
    outer loop
      vertex 0.0999994 0.0999994 0
      vertex 0.0999994 0 0.0999994
      vertex 0.0999994 0 0
    endloop
  endfacet
  facet normal 0 1 -0
    outer loop
      vertex 0.0999994 0.0999994 0
      vertex 0 0.0999994 0.0999994
      vertex 0.0999994 0.0999994 0.0999994
    endloop
  endfacet
  facet normal 0 1 0
    outer loop
      vertex 0 0.0999994 0.0999994
      vertex 0.0999994 0.0999994 0
      vertex 0 0.0999994 0
    endloop
  endfacet
  facet normal 0 0 -1
    outer loop
      vertex 0 0 0
      vertex 0.0999994 0.0999994 0
      vertex 0.0999994 0 0
    endloop
  endfacet
  facet normal -0 0 -1
    outer loop
      vertex 0.0999994 0.0999994 0
      vertex 0 0 0
      vertex 0 0.0999994 0
    endloop
  endfacet
  facet normal 0 -1 0
    outer loop
      vertex 0 0 0
      vertex 0.0999994 0 0.0999994
      vertex 0 0 0.0999994
    endloop
  endfacet
  facet normal 0 -1 -0
    outer loop
      vertex 0.0999994 0 0.0999994
      vertex 0 0 0
      vertex 0.0999994 0 0
    endloop
  endfacet
endsolid OpenSCAD_Model
